<svg width="262" height="250" viewBox="0 0 262 250" fill="none" xmlns="http://www.w3.org/2000/svg">
<g clip-path="url(#clip0_217_214)">
<path d="M0 63.25L1.54 63.72C7.27 65.47 11.68 68.39 14.79 72.47C17.93 76.53 19.49 81.44 19.49 87.2C19.49 90.5 18.69 93.28 17.09 95.54C15.49 97.8 13.31 99.31 10.56 100.07C7.84 100.84 4.83 100.72 1.54 99.71L0 99.24V63.24L0 63.25ZM1.92 98.35C4.86 99.25 7.55 99.35 9.98 98.66C12.41 97.93 14.33 96.52 15.74 94.42C17.18 92.33 17.9 89.77 17.9 86.73C17.9 81.42 16.51 76.91 13.72 73.21C10.97 69.49 7.03 66.85 1.91 65.28L1.53 65.16V98.23L1.91 98.35H1.92ZM34.95 110.47C32.9 109.84 31 108.75 29.24 107.19C27.48 105.63 26.09 103.83 25.06 101.79C24.04 99.72 23.52 97.67 23.52 95.66C23.52 93.65 24.03 91.93 25.06 90.51C26.08 89.06 27.48 88.1 29.24 87.61C31 87.12 32.9 87.19 34.95 87.82C37 88.45 39 89.62 40.85 91.31C42.71 92.97 44 94.79 44.74 96.77V91.35L46.28 91.82V113.42L44.74 112.95V107.57C43.88 109.1 42.53 110.13 40.71 110.66C38.92 111.17 37 111.11 34.95 110.48V110.47ZM35.05 109.15C36.81 109.69 38.44 109.74 39.95 109.3C41.45 108.83 42.64 107.98 43.5 106.74C44.4 105.48 44.84 103.95 44.84 102.16C44.84 100.37 44.39 98.62 43.5 96.81C42.6 95 41.4 93.42 39.9 92.06C38.4 90.67 36.76 89.71 35 89.17C33.24 88.63 31.59 88.59 30.06 89.05C28.56 89.52 27.34 90.38 26.41 91.63C25.51 92.89 25.07 94.4 25.07 96.16C25.07 97.92 25.52 99.7 26.41 101.51C27.34 103.3 28.57 104.89 30.11 106.29C31.65 107.66 33.29 108.61 35.05 109.15ZM60.07 117.91C57.7 117.19 55.73 115.86 54.17 113.94C52.63 112.03 51.87 109.81 51.87 107.28V84.82L53.41 85.29V93.98L60.03 96.01V97.35L53.41 95.32V107.75C53.41 109.86 54.03 111.72 55.28 113.31C56.56 114.89 58.16 115.97 60.08 116.55V117.89L60.07 117.91ZM74.28 122.49C72.23 121.86 70.33 120.77 68.57 119.21C66.81 117.65 65.42 115.85 64.39 113.81C63.37 111.74 62.85 109.69 62.85 107.68C62.85 105.67 63.36 103.95 64.39 102.53C65.41 101.08 66.81 100.12 68.57 99.63C70.33 99.14 72.23 99.21 74.28 99.84C76.33 100.47 78.33 101.64 80.18 103.33C82.04 104.99 83.33 106.81 84.07 108.79V103.37L85.61 103.84V125.44L84.07 124.97V119.59C83.21 121.12 81.86 122.15 80.04 122.68C78.25 123.19 76.33 123.13 74.28 122.5V122.49ZM74.38 121.18C76.14 121.72 77.77 121.77 79.28 121.33C80.78 120.86 81.97 120.01 82.83 118.77C83.73 117.51 84.17 115.98 84.17 114.19C84.17 112.4 83.72 110.65 82.83 108.84C81.93 107.03 80.73 105.45 79.23 104.09C77.73 102.7 76.09 101.74 74.33 101.2C72.57 100.66 70.92 100.62 69.39 101.08C67.89 101.55 66.67 102.41 65.74 103.66C64.84 104.92 64.4 106.43 64.4 108.19C64.4 109.95 64.85 111.73 65.74 113.54C66.67 115.33 67.9 116.92 69.44 118.32C70.98 119.69 72.62 120.64 74.38 121.18ZM101.85 130.92C99.77 130.28 97.85 129.18 96.09 127.62C94.36 126.07 92.99 124.27 91.96 122.23C90.94 120.19 90.42 118.14 90.42 116.1C90.42 114.06 90.93 112.32 91.96 110.91C92.98 109.5 94.36 108.54 96.09 108.04C97.85 107.55 99.77 107.63 101.85 108.27C103.93 108.91 105.79 110.02 107.61 111.66C109.43 113.27 110.78 115.08 111.64 117.07V97.39L113.18 97.86V133.86L111.64 133.39V128.16C110.68 129.59 109.29 130.56 107.46 131.06C105.67 131.57 103.8 131.52 101.84 130.93L101.85 130.92ZM101.8 129.56C103.56 130.1 105.19 130.15 106.7 129.71C108.24 129.25 109.45 128.41 110.35 127.18C111.28 125.93 111.74 124.42 111.74 122.66C111.74 120.9 111.28 119.11 110.35 117.29C109.45 115.48 108.24 113.88 106.7 112.48C105.2 111.09 103.56 110.13 101.8 109.59C100.04 109.05 98.41 109.02 96.9 109.48C95.4 109.92 94.2 110.77 93.3 112.03C92.4 113.29 91.96 114.8 91.96 116.56C91.96 118.32 92.39 120.15 93.26 121.95C94.16 123.73 95.36 125.31 96.86 126.7C98.4 128.07 100.04 129.02 101.8 129.56ZM129.5 139.62C127.32 138.95 125.36 137.83 123.6 136.23C121.84 134.6 120.46 132.76 119.47 130.7C118.48 128.6 117.98 126.52 117.98 124.44C117.98 122.36 118.48 120.64 119.47 119.18C120.49 117.73 121.87 116.76 123.6 116.27C125.36 115.75 127.31 115.82 129.46 116.48C131.61 117.14 133.49 118.24 135.22 119.83C136.98 121.39 138.36 123.2 139.35 125.27C140.34 127.33 140.84 129.39 140.84 131.44C140.84 133.49 140.36 135.41 139.4 136.9C138.44 138.37 137.1 139.36 135.37 139.89C133.67 140.4 131.72 140.31 129.51 139.64L129.5 139.62ZM129.5 138.27C131.32 138.83 132.99 138.87 134.49 138.4C135.99 137.93 137.16 137.06 137.99 135.78C138.85 134.48 139.29 132.9 139.29 131.04C139.29 129.18 138.86 127.39 137.99 125.56C137.13 123.73 135.94 122.12 134.44 120.73C132.94 119.34 131.27 118.37 129.45 117.81C127.63 117.25 125.95 117.22 124.41 117.71C122.91 118.18 121.71 119.06 120.81 120.35C119.95 121.65 119.51 123.22 119.51 125.04C119.51 126.86 119.94 128.69 120.81 130.52C121.71 132.33 122.91 133.93 124.41 135.32C125.95 136.72 127.64 137.7 129.5 138.27ZM145.62 122.18L147.16 122.65V127.93C148.02 126.47 149.37 125.49 151.19 124.99C153.01 124.46 154.93 124.5 156.95 125.12C158.97 125.74 160.93 126.85 162.66 128.4C164.42 129.96 165.81 131.76 166.84 133.8C167.86 135.84 168.38 137.89 168.38 139.93C168.38 141.97 167.87 143.71 166.84 145.12C165.81 146.53 164.42 147.49 162.66 147.97C160.93 148.47 159.03 148.4 156.95 147.76C155 147.16 153.11 146.06 151.29 144.44C149.5 142.84 148.12 141.02 147.16 139V153.83L145.62 153.36V122.16V122.18ZM157.05 146.45C158.81 146.99 160.44 147.04 161.95 146.6C163.45 146.13 164.64 145.28 165.5 144.04C166.4 142.78 166.84 141.25 166.84 139.46C166.84 137.67 166.39 135.92 165.5 134.11C164.6 132.3 163.4 130.72 161.9 129.36C160.4 127.97 158.76 127.01 157 126.47C155.24 125.93 153.59 125.89 152.06 126.35C150.56 126.82 149.34 127.68 148.41 128.93C147.51 130.19 147.07 131.7 147.07 133.46C147.07 135.22 147.52 137 148.41 138.81C149.34 140.6 150.57 142.19 152.11 143.59C153.65 144.96 155.29 145.91 157.05 146.45ZM180.91 154.85C178.54 154.13 176.57 152.8 175.01 150.88C173.47 148.97 172.71 146.75 172.71 144.22V121.76L174.25 122.23V130.92L180.87 132.95V134.29L174.25 132.26V144.69C174.25 146.8 174.87 148.66 176.12 150.25C177.4 151.83 179 152.91 180.92 153.49V154.83L180.91 154.85ZM183.13 126.3C185.02 126.01 185.96 124.83 185.96 122.75V117.23L187.69 117.76V123.28C187.69 124.78 187.27 125.95 186.44 126.79C185.61 127.59 184.5 127.99 183.13 127.99V126.31V126.3Z" fill="white"/>
<path class="star" d="M58.0001 41.7079C74.6306 25.1354 95.8192 13.8493 118.886 9.27699C141.954 4.70465 165.863 7.05135 187.592 16.0203C209.321 24.9893 227.893 40.1778 240.959 59.665C254.026 79.1522 261 102.063 261 125.5C261 148.937 254.026 171.848 240.959 191.335C227.893 210.822 209.321 226.011 187.592 234.98C165.863 243.949 141.953 246.295 118.886 241.723C95.819 237.151 74.6305 225.865 58 209.292" stroke="white" stroke-width="2"/>
<path class="star" d="M50 151V176M58 163H42" stroke="#E9C758" stroke-width="2"/>
<path class="star" d="M210 80V105M218 92H202" stroke="#E9C758" stroke-width="2"/>
<path class="star" d="M27 136V153M33 144.16H21" stroke="#E9C758" stroke-width="2"/>
<path class="star" d="M21 159V168M24 163.32H18" stroke="#E9C758" stroke-width="2"/>
<path class="star" d="M226 116V125M229 120.32H223" stroke="#E9C758" stroke-width="2"/>
</g>
<defs>
<clipPath id="clip0_217_214">
<rect width="261.21" height="249.9" fill="white"/>
</clipPath>
</defs>
</svg>
