<svg width="218" height="128" viewBox="0 0 218 128" fill="none" xmlns="http://www.w3.org/2000/svg">
<path d="M5.85829 5.18241L8.9271 17.9076M12.5736 10.0263L2.08903 12.5547" stroke="#E9C758" stroke-width="2"/>
<line x1="10.0026" y1="115.072" x2="3.00259" y2="18.072" stroke="white" stroke-width="2"/>
<line x1="12.8064" y1="19.4086" x2="34.8064" y2="49.4086" stroke="white" stroke-width="2"/>
<line x1="39.0513" y1="47.6838" x2="49.0513" y2="17.6838" stroke="white" stroke-width="2"/>
<line x1="57" y1="111" x2="57" y2="18" stroke="white" stroke-width="2"/>
<path d="M76.536 89.232C78.2 89.232 79.784 88.8 81.288 87.936C82.792 87.072 84.04 85.888 85.032 84.384V86.832C83.848 88.144 82.552 89.104 81.144 89.712C79.736 90.288 78.136 90.576 76.344 90.576C74.36 90.576 72.488 90.048 70.728 88.992C69 87.936 67.608 86.528 66.552 84.768C65.528 83.008 65.016 81.136 65.016 79.152C65.016 77.008 65.528 75.088 66.552 73.392C67.576 71.664 68.968 70.32 70.728 69.36C72.52 68.4 74.504 67.92 76.68 67.92C80.008 67.92 82.84 69.232 85.176 71.856L70.104 86.736C71.16 87.6 72.184 88.24 73.176 88.656C74.168 89.04 75.288 89.232 76.536 89.232ZM66.552 79.008C66.552 81.664 67.432 83.936 69.192 85.824L83.256 71.856C82.2 70.928 81.176 70.272 80.184 69.888C79.192 69.472 78.008 69.264 76.632 69.264C74.68 69.264 72.936 69.696 71.4 70.56C69.896 71.392 68.712 72.544 67.848 74.016C66.984 75.488 66.552 77.152 66.552 79.008ZM89.9771 68.4H91.5131V73.392C92.1531 71.824 93.0811 70.592 94.2971 69.696C95.5451 68.8 96.9531 68.352 98.5211 68.352C99.5131 68.352 100.521 68.56 101.545 68.976V70.752C100.617 70.048 99.5771 69.696 98.4251 69.696C97.2731 69.696 96.1531 70.048 95.0651 70.752C94.0091 71.456 93.1451 72.4 92.4731 73.584C91.8331 74.768 91.5131 76.032 91.5131 77.376V90H89.9771V68.4ZM105.352 68.4H106.888V71.664C108.36 69.136 110.728 67.872 113.992 67.872C115.56 67.872 116.92 68.32 118.072 69.216C119.224 70.08 120.024 71.392 120.472 73.152C120.888 71.584 121.8 70.32 123.208 69.36C124.648 68.368 126.264 67.872 128.056 67.872C130.392 67.872 132.2 68.56 133.48 69.936C134.76 71.28 135.4 73.2 135.4 75.696V90H133.864V75.696C133.864 73.68 133.336 72.096 132.28 70.944C131.256 69.792 129.896 69.216 128.2 69.216C126.92 69.216 125.736 69.536 124.648 70.176C123.56 70.784 122.696 71.616 122.056 72.672C121.416 73.728 121.096 74.896 121.096 76.176V90H119.56V76.56C119.56 74.256 119.016 72.464 117.928 71.184C116.84 69.872 115.432 69.216 113.704 69.216C112.552 69.216 111.448 69.504 110.392 70.08C109.368 70.656 108.52 71.44 107.848 72.432C107.208 73.392 106.888 74.448 106.888 75.6V90H105.352V68.4ZM151.622 90.528C149.574 90.528 147.67 90.016 145.91 88.992C144.15 87.968 142.758 86.592 141.734 84.864C140.71 83.104 140.198 81.216 140.198 79.2C140.198 77.184 140.71 75.312 141.734 73.584C142.758 71.824 144.15 70.432 145.91 69.408C147.67 68.384 149.574 67.872 151.622 67.872C153.702 67.872 155.67 68.432 157.526 69.552C159.382 70.64 160.678 72.064 161.414 73.824V68.4H162.95V90H161.414V84.624C160.55 86.416 159.206 87.856 157.382 88.944C155.59 90 153.67 90.528 151.622 90.528ZM151.718 89.184C153.478 89.184 155.11 88.736 156.614 87.84C158.118 86.912 159.302 85.696 160.166 84.192C161.062 82.656 161.51 80.992 161.51 79.2C161.51 77.44 161.062 75.792 160.166 74.256C159.27 72.72 158.07 71.504 156.566 70.608C155.062 69.68 153.43 69.216 151.67 69.216C149.91 69.216 148.262 69.68 146.726 70.608C145.222 71.536 144.006 72.768 143.078 74.304C142.182 75.84 141.734 77.488 141.734 79.248C141.734 81.008 142.182 82.656 143.078 84.192C144.006 85.696 145.238 86.912 146.774 87.84C148.31 88.736 149.958 89.184 151.718 89.184ZM179.184 90.528C177.104 90.528 175.184 90.016 173.424 88.992C171.696 87.968 170.32 86.592 169.296 84.864C168.272 83.136 167.76 81.248 167.76 79.2C167.76 77.152 168.272 75.264 169.296 73.536C170.32 71.808 171.696 70.432 173.424 69.408C175.184 68.384 177.104 67.872 179.184 67.872C181.2 67.872 183.12 68.416 184.944 69.504C186.768 70.56 188.112 71.952 188.976 73.68V54H190.512V90H188.976V84.768C188.016 86.496 186.624 87.888 184.8 88.944C183.008 90 181.136 90.528 179.184 90.528ZM179.136 89.184C180.896 89.184 182.528 88.736 184.032 87.84C185.568 86.912 186.784 85.696 187.68 84.192C188.608 82.656 189.072 81.008 189.072 79.248C189.072 77.488 188.608 75.84 187.68 74.304C186.784 72.768 185.568 71.536 184.032 70.608C182.528 69.68 180.896 69.216 179.136 69.216C177.376 69.216 175.744 69.68 174.24 70.608C172.736 71.504 171.536 72.72 170.64 74.256C169.744 75.792 169.296 77.44 169.296 79.2C169.296 80.992 169.728 82.656 170.592 84.192C171.488 85.696 172.688 86.912 174.192 87.84C175.728 88.736 177.376 89.184 179.136 89.184ZM207.083 89.232C208.747 89.232 210.331 88.8 211.835 87.936C213.339 87.072 214.587 85.888 215.579 84.384V86.832C214.395 88.144 213.099 89.104 211.691 89.712C210.283 90.288 208.683 90.576 206.891 90.576C204.907 90.576 203.035 90.048 201.275 88.992C199.547 87.936 198.155 86.528 197.099 84.768C196.075 83.008 195.563 81.136 195.563 79.152C195.563 77.008 196.075 75.088 197.099 73.392C198.123 71.664 199.515 70.32 201.275 69.36C203.067 68.4 205.051 67.92 207.227 67.92C210.555 67.92 213.387 69.232 215.723 71.856L200.651 86.736C201.707 87.6 202.731 88.24 203.723 88.656C204.715 89.04 205.835 89.232 207.083 89.232ZM197.099 79.008C197.099 81.664 197.979 83.936 199.739 85.824L213.803 71.856C212.747 70.928 211.723 70.272 210.731 69.888C209.739 69.472 208.555 69.264 207.179 69.264C205.227 69.264 203.483 69.696 201.947 70.56C200.443 71.392 199.259 72.544 198.395 74.016C197.531 75.488 197.099 77.152 197.099 79.008Z" fill="white"/>
<path class="star" d="M52.3926 111V124.09M57.7852 117.283H47" stroke="#E9C758" stroke-width="2"/>
<path class="star" d="M38 50V60M42 54.8H34" stroke="#E9C758" stroke-width="2"/>
<path class="star" d="M11 118V128M15 122.8H7" stroke="#E9C758" stroke-width="2"/>
<path class="star" d="M53.8414 1.03548L52.1585 20.9645M61.0052 11.2746L45.062 9.92829" stroke="#E9C758" stroke-width="2"/>
</svg>
