<svg width="285" height="169" viewBox="0 0 285 169" fill="none" xmlns="http://www.w3.org/2000/svg">
<g clip-path="url(#clip0_217_168)">
<path d="M58.1205 60.8959L60.2648 60.073C65.3826 58.1074 69.3691 57.9417 72.236 59.5757C75.097 61.1623 76.5305 64.2349 76.5305 68.7876C76.5305 71.949 75.8375 75.0335 74.4514 78.041C73.0653 81.0011 71.1757 83.6119 68.7945 85.8676C66.4074 88.0817 63.7418 89.7572 60.7919 90.888L60.2707 91.0892V108.838L58.1264 109.661V60.8959H58.1205ZM60.9163 88.952C64.8613 87.4364 68.0955 84.9855 70.6071 81.5931C73.1245 78.1594 74.3803 74.2046 74.3803 69.7408C74.3803 65.2769 73.1897 62.7016 70.8025 61.3636C68.4628 59.9664 65.122 60.0966 60.786 61.7602L60.2648 61.9615V89.2066L60.9163 88.9579V88.952ZM93.744 97.0332C90.7941 98.164 88.1286 98.4718 85.7414 97.9568C83.3543 97.4003 81.4943 96.1866 80.1497 94.3158C78.8051 92.4035 78.1358 90.0414 78.1358 87.2233C78.1358 84.4053 78.8051 81.6109 80.1497 78.71C81.5358 75.7913 83.4017 73.1923 85.7414 70.9071C88.1286 68.5626 90.7704 66.8339 93.6788 65.715C96.5872 64.596 99.1402 64.3356 101.486 64.8684C103.873 65.342 105.733 66.5083 107.078 68.3791C108.422 70.2499 109.092 72.5706 109.092 75.3413C109.092 78.112 108.44 81.161 107.143 84.0856C105.84 86.9687 104.021 89.5737 101.681 91.9062C99.3831 94.1737 96.7353 95.8847 93.744 97.0332ZM93.744 95.2098C96.2141 94.2625 98.4709 92.7706 100.509 90.7281C102.546 88.6915 104.128 86.4122 105.259 83.902C106.432 81.3267 107.018 78.7869 107.018 76.2708C107.018 73.7547 106.432 71.73 105.259 70.0545C104.086 68.3791 102.481 67.3075 100.443 66.828C98.4057 66.3544 96.1489 66.5912 93.6788 67.5384C91.2088 68.4857 88.9282 70.0131 86.8491 72.1089C84.8115 74.1454 83.1825 76.4603 81.9682 79.0533C80.7954 81.6287 80.209 84.1507 80.209 86.6194C80.209 89.0882 80.7954 91.1603 81.9682 92.8357C83.1825 94.452 84.8115 95.4939 86.8491 95.9676C88.9282 96.4234 91.2265 96.1748 93.744 95.2098ZM114.95 58.5988L117.029 57.7996V64.5605C117.894 62.1036 119.156 59.9546 120.802 58.1074C122.496 56.2425 124.404 54.9046 126.524 54.0935C127.869 53.5784 129.237 53.3357 130.623 53.3653V55.7689C129.368 55.2953 127.958 55.3604 126.394 55.9584C124.83 56.5563 123.314 57.616 121.839 59.1376C120.405 60.6413 119.238 62.37 118.326 64.3237C117.461 66.2596 117.023 68.1364 117.023 69.9598V87.0575L114.944 87.8568V58.5988H114.95ZM146.261 76.2294C143.051 77.4608 140.385 77.5081 138.259 76.3715C136.179 75.217 135.137 72.9318 135.137 69.5099V39.0797L137.216 38.2805V50.0499L146.196 46.6043V48.4219L137.216 51.8675V68.7047C137.216 71.5642 138.063 73.4942 139.751 74.4947C141.487 75.4301 143.655 75.4005 146.255 74.4059V76.2234L146.261 76.2294ZM151.734 44.4849L153.814 43.6857V50.4466C154.678 47.9897 155.94 45.8406 157.587 43.9935C159.281 42.1286 161.188 40.7906 163.309 39.9796C164.653 39.4645 166.022 39.2218 167.408 39.2514V41.655C166.152 41.1814 164.742 41.2465 163.178 41.8445C161.615 42.4424 160.098 43.5021 158.623 45.0236C157.19 46.5274 156.023 48.2561 155.111 50.2098C154.246 52.1457 153.808 54.0224 153.808 55.8459V72.9436L151.728 73.7429V44.4849H151.734ZM186.363 61.1741C183.585 62.2398 181.008 62.5358 178.621 62.0622C176.234 61.5885 174.35 60.4519 172.964 58.6403C171.578 56.7872 170.885 54.4961 170.885 51.7668C170.885 49.0376 171.578 46.2314 172.964 43.36C174.35 40.4413 176.24 37.8364 178.621 35.5334C181.008 33.2305 183.585 31.5491 186.363 30.4835C189.141 29.4178 191.848 29.1396 194.365 29.6901C196.883 30.1993 198.636 31.4544 199.637 33.4554V26.1084L201.716 25.3091V54.5671L199.637 55.3663V48.0844C198.464 50.9617 196.646 53.608 194.176 56.0353C191.747 58.3975 189.147 60.1085 186.369 61.1741H186.363ZM186.493 59.3033C188.88 58.3857 191.09 56.9352 193.127 54.9401C195.165 52.9035 196.77 50.6361 197.943 48.1495C199.157 45.6038 199.762 43.1173 199.762 40.69C199.762 38.2627 199.157 36.309 197.943 34.6928C196.729 33.0765 195.1 32.0523 193.062 31.6261C191.025 31.1524 188.815 31.3715 186.428 32.2891C184.041 33.2068 181.808 34.6868 179.729 36.7471C177.691 38.7837 176.044 41.0867 174.782 43.6501C173.568 46.1959 172.958 48.6646 172.958 51.0445C172.958 53.4245 173.568 55.4255 174.782 57.0418C176.038 58.5988 177.709 59.6053 179.794 60.0611C181.873 60.4755 184.106 60.2269 186.493 59.3092V59.3033ZM212.461 14.4869C211.857 14.7178 211.312 14.7119 210.832 14.4632C210.4 14.1968 210.181 13.735 210.181 13.0897C210.181 12.4858 210.4 11.882 210.832 11.2781C211.312 10.6624 211.851 10.2361 212.461 10.0052C213.072 9.77435 213.587 9.79212 214.025 10.0585C214.505 10.3072 214.742 10.7394 214.742 11.3432C214.742 11.9945 214.505 12.6279 214.025 13.2436C213.593 13.8416 213.072 14.2619 212.461 14.4928V14.4869ZM211.419 21.5853L213.498 20.7861V50.044L211.419 50.8433V21.5853ZM233.673 42.697C230.463 43.9284 227.797 43.9757 225.671 42.8391C223.592 41.6846 222.549 39.3994 222.549 35.9775V5.54728L224.628 4.74805V16.5175L233.608 13.0719V14.8895L224.628 18.3351V35.1723C224.628 38.0318 225.475 39.9618 227.163 40.9623C228.899 41.8977 231.067 41.8681 233.667 40.8735V42.691L233.673 42.697ZM81.0797 167.165C76.5246 168.911 72.3426 169.414 68.522 168.668C64.7073 167.881 61.6686 165.969 59.4177 162.932C57.2083 159.835 56.1006 155.839 56.1006 150.943C56.1006 146.047 57.2497 141.465 59.548 136.681C61.8878 131.88 64.9917 127.617 68.8478 123.882C72.7514 120.128 76.8918 117.417 81.2752 115.735C84.308 114.569 86.7188 113.93 88.4958 113.811C90.2729 113.651 92.3342 113.793 94.674 114.238V116.641C92.4645 115.972 90.4032 115.7 88.4958 115.824C86.6299 115.889 84.2902 116.464 81.4706 117.547C77.1762 119.193 73.2548 121.804 69.6949 125.379C66.1823 128.896 63.3864 132.892 61.3014 137.374C59.2637 141.796 58.2449 146.112 58.2449 150.316C58.2449 154.519 59.2874 158.107 61.3665 160.948C63.4456 163.79 66.2 165.637 69.6297 166.49C73.1008 167.283 76.8267 166.916 80.8191 165.383C83.6801 164.287 86.1739 163.003 88.3004 161.535C90.4269 160.025 92.5475 158.148 94.674 155.904V158.308C92.5948 160.362 90.4446 162.097 88.2352 163.512C86.0672 164.951 83.6801 166.17 81.0797 167.165ZM102.884 108.738L104.963 107.938V133.49C105.875 131.193 107.415 128.997 109.583 126.907C111.793 124.758 114.026 123.248 116.283 122.384C120.405 120.803 123.568 120.714 125.778 122.123C128.035 123.515 129.16 126.267 129.16 130.382V147.415L127.081 148.214V131.181C127.081 127.629 126.127 125.261 124.22 124.089C122.354 122.851 119.712 122.893 116.283 124.207C114.204 125.006 112.29 126.238 110.561 127.901C108.825 129.518 107.463 131.389 106.462 133.502C105.466 135.574 104.963 137.628 104.963 139.665V156.698L102.884 157.497V108.732V108.738ZM139.911 107.34C139.307 107.571 138.762 107.565 138.282 107.317C137.85 107.05 137.631 106.589 137.631 105.943C137.631 105.333 137.85 104.735 138.282 104.132C138.762 103.516 139.301 103.09 139.911 102.859C140.521 102.628 141.037 102.646 141.475 102.912C141.955 103.161 142.192 103.593 142.192 104.197C142.192 104.848 141.955 105.481 141.475 106.097C141.043 106.695 140.521 107.115 139.911 107.346V107.34ZM138.875 114.433L140.954 113.634V142.892L138.875 143.691V114.433ZM150.656 109.916L152.735 109.116V115.617C153.689 113.083 155.318 110.727 157.616 108.542C159.915 106.316 162.45 104.67 165.228 103.605C168.829 102.225 171.667 102.284 173.752 103.782C175.878 105.221 176.939 107.98 176.939 112.053V129.086L174.859 129.885V112.852C174.859 109.341 173.995 106.944 172.259 105.659C170.565 104.357 168.184 104.297 165.104 105.481C162.847 106.346 160.768 107.666 158.86 109.436C156.994 111.147 155.502 113.107 154.37 115.321C153.286 117.511 152.741 119.737 152.741 121.993V138.374L150.662 139.174V109.916H150.656ZM199.069 121.638C196.119 122.769 193.453 123.076 191.066 122.561C188.679 122.005 186.819 120.791 185.474 118.92C184.13 117.008 183.46 114.646 183.46 111.828C183.46 109.01 184.13 106.216 185.474 103.315C186.86 100.396 188.726 97.7969 191.066 95.5117C193.453 93.1673 196.095 91.4385 199.003 90.3196C201.912 89.2007 204.465 88.9402 206.81 89.473C209.198 89.9466 211.058 91.1129 212.402 92.9837C213.747 94.8545 214.416 97.1753 214.416 99.946C214.416 102.717 213.765 105.766 212.467 108.69C211.164 111.573 209.346 114.178 207.006 116.511C204.708 118.778 202.06 120.489 199.069 121.638ZM199.069 119.82C201.539 118.873 203.795 117.381 205.833 115.339C207.871 113.302 209.452 111.023 210.584 108.513C211.757 105.937 212.343 103.397 212.343 100.881C212.343 98.3652 211.757 96.3405 210.584 94.6651C209.411 92.9896 207.806 91.9181 205.768 91.4385C203.73 90.9649 201.473 91.2017 199.003 92.149C196.533 93.0962 194.253 94.6236 192.174 96.7194C190.136 98.756 188.507 101.071 187.293 103.664C186.12 106.239 185.533 108.761 185.533 111.23C185.533 113.699 186.12 115.771 187.293 117.446C188.507 119.063 190.136 120.104 192.174 120.578C194.253 121.034 196.551 120.785 199.069 119.82ZM223.455 75.288C222.851 75.5189 222.306 75.513 221.826 75.2644C221.394 74.998 221.175 74.5362 221.175 73.8909C221.175 73.2811 221.394 72.6831 221.826 72.0793C222.306 71.4636 222.845 71.0373 223.455 70.8064C224.065 70.5755 224.581 70.5933 225.019 70.8597C225.499 71.1083 225.736 71.5405 225.736 72.1444C225.736 72.7956 225.499 73.4291 225.019 74.0448C224.587 74.6427 224.065 75.0631 223.455 75.294V75.288ZM222.413 82.3865L224.492 81.5872V110.845L222.413 111.644V82.3865ZM241.285 105.12C239.206 105.92 237.358 106.281 235.758 106.204C234.153 106.085 233.004 105.594 232.311 104.73V101.284C233.134 102.829 234.26 103.788 235.693 104.149C237.127 104.469 238.945 104.203 241.155 103.356C243.364 102.509 244.993 101.231 246.296 99.4368C247.599 97.5956 248.245 95.6301 248.245 93.5521C248.245 91.776 247.878 90.5505 247.137 89.8815C246.403 89.1652 245.206 88.6264 243.559 88.2653L241.089 87.7857C239.312 87.3832 237.968 87.0575 237.056 86.7971C236.191 86.4774 235.492 86.0333 234.976 85.4472C234.455 84.8256 234.194 83.9672 234.194 82.8838C234.194 81.1491 234.805 79.5329 236.019 78.0232C237.233 76.5195 238.815 75.3887 240.769 74.6427C243.157 73.7251 245.147 73.506 246.752 73.9737V76.8332C245.408 75.5722 243.476 75.4242 240.965 76.3892C239.579 76.922 238.448 77.7035 237.583 78.7277C236.718 79.7519 236.28 80.8117 236.28 81.8951C236.28 82.8482 236.54 83.5942 237.061 84.1329C237.583 84.6243 238.299 85.0032 239.206 85.2578C240.159 85.5005 241.723 85.8084 243.891 86.1932C246.101 86.6017 247.73 87.2766 248.772 88.2238C249.815 89.1237 250.336 90.6393 250.336 92.7588C250.336 95.4466 249.447 97.9568 247.67 100.283C245.935 102.551 243.808 104.167 241.297 105.132L241.285 105.12Z" fill="white"/>
<path d="M253.404 6.44716C270.292 0.692658 280.782 -0.864373 283.62 1.97144C286.463 4.80725 281.541 11.9116 269.439 22.4437C257.338 32.9818 238.56 46.5037 215.323 61.4287C192.085 76.3478 165.359 92.0424 138.294 106.654C111.23 121.265 84.9598 134.189 62.587 143.892C40.2142 153.601 22.669 159.687 12.0246 161.434C1.38015 163.18 -1.91921 160.516 2.51152 153.755C6.94225 146.994 18.9253 136.415 37.0392 123.272" stroke="white" stroke-width="2"/>
<path class="star"  d="M34 77V89.5M30 83H38" stroke="#E9C758" stroke-width="2"/>
<path class="star" d="M256 47V66M262 56.12H250" stroke="#E9C758" stroke-width="2"/>
<path class="star"  d="M25.3333 89V97M22.5 92.84H28" stroke="#E9C758" stroke-width="2"/>
<path class="star"  d="M268.879 65V77M273 70.76H265" stroke="#E9C758" stroke-width="2"/>
</g>
<defs>
<clipPath id="clip0_217_168">
<rect width="285" height="169" fill="white"/>
</clipPath>
</defs>
</svg>
