<svg width="1307" height="813" viewBox="0 0 1307 813" fill="none" xmlns="http://www.w3.org/2000/svg">
<g id="Group 5">
<g id="portrait-chinois" clip-path="url(#clip0_0_1)">
<path id="Vector" d="M976.12 185.896L978.265 185.073C983.383 183.107 987.369 182.942 990.236 184.576C993.097 186.162 994.531 189.235 994.531 193.788C994.531 196.949 993.837 200.033 992.451 203.041C991.065 206.001 989.176 208.612 986.794 210.868C984.407 213.082 981.742 214.757 978.792 215.888L978.271 216.089V233.838L976.126 234.661V185.896H976.12ZM978.916 213.952C982.861 212.436 986.096 209.985 988.607 206.593C991.125 203.159 992.38 199.205 992.38 194.741C992.38 190.277 991.19 187.702 988.803 186.364C986.463 184.966 983.122 185.097 978.786 186.76L978.265 186.962V214.207L978.916 213.958V213.952ZM1011.74 222.033C1008.79 223.164 1006.13 223.472 1003.74 222.957C1001.35 222.4 999.494 221.187 998.15 219.316C996.805 217.404 996.136 215.041 996.136 212.223C996.136 209.405 996.805 206.611 998.15 203.71C999.536 200.791 1001.4 198.192 1003.74 195.907C1006.13 193.563 1008.77 191.834 1011.68 190.715C1014.59 189.596 1017.14 189.336 1019.49 189.868C1021.87 190.342 1023.73 191.508 1025.08 193.379C1026.42 195.25 1027.09 197.571 1027.09 200.341C1027.09 203.112 1026.44 206.161 1025.14 209.086C1023.84 211.969 1022.02 214.574 1019.68 216.906C1017.38 219.174 1014.74 220.885 1011.74 222.033ZM1011.74 220.21C1014.21 219.263 1016.47 217.771 1018.51 215.728C1020.55 213.692 1022.13 211.412 1023.26 208.902C1024.43 206.327 1025.02 203.787 1025.02 201.271C1025.02 198.755 1024.43 196.73 1023.26 195.055C1022.09 193.379 1020.48 192.308 1018.44 191.828C1016.41 191.354 1014.15 191.591 1011.68 192.538C1009.21 193.486 1006.93 195.013 1004.85 197.109C1002.81 199.145 1001.18 201.46 999.968 204.053C998.795 206.629 998.209 209.151 998.209 211.619C998.209 214.088 998.795 216.16 999.968 217.836C1001.18 219.452 1002.81 220.494 1004.85 220.968C1006.93 221.423 1009.23 221.175 1011.74 220.21ZM1032.95 183.599L1035.03 182.8V189.561C1035.89 187.104 1037.16 184.955 1038.8 183.107C1040.5 181.243 1042.4 179.905 1044.52 179.093C1045.87 178.578 1047.24 178.336 1048.62 178.365V180.769C1047.37 180.295 1045.96 180.36 1044.39 180.958C1042.83 181.556 1041.31 182.616 1039.84 184.138C1038.41 185.641 1037.24 187.37 1036.33 189.324C1035.46 191.26 1035.02 193.136 1035.02 194.96V212.058L1032.94 212.857V183.599H1032.95ZM1064.26 201.229C1061.05 202.461 1058.39 202.508 1056.26 201.371C1054.18 200.217 1053.14 197.932 1053.14 194.51V164.08L1055.22 163.28V175.05L1064.2 171.604V173.422L1055.22 176.867V193.705C1055.22 196.564 1056.06 198.494 1057.75 199.495C1059.49 200.43 1061.65 200.401 1064.26 199.406V201.223L1064.26 201.229ZM1069.73 169.485L1071.81 168.686V175.447C1072.68 172.99 1073.94 170.841 1075.59 168.994C1077.28 167.129 1079.19 165.791 1081.31 164.98C1082.65 164.465 1084.02 164.222 1085.41 164.251V166.655C1084.15 166.181 1082.74 166.247 1081.18 166.844C1079.61 167.442 1078.1 168.502 1076.62 170.024C1075.19 171.527 1074.02 173.256 1073.11 175.21C1072.25 177.146 1071.81 179.022 1071.81 180.846V197.944L1069.73 198.743V169.485H1069.73ZM1104.36 186.174C1101.58 187.24 1099.01 187.536 1096.62 187.062C1094.23 186.589 1092.35 185.452 1090.96 183.64C1089.58 181.787 1088.88 179.496 1088.88 176.767C1088.88 174.038 1089.58 171.231 1090.96 168.36C1092.35 165.441 1094.24 162.836 1096.62 160.533C1099.01 158.23 1101.58 156.549 1104.36 155.483C1107.14 154.418 1109.85 154.14 1112.37 154.69C1114.88 155.199 1116.64 156.454 1117.64 158.455V151.108L1119.72 150.309V179.567L1117.64 180.366V173.084C1116.46 175.962 1114.65 178.608 1112.18 181.035C1109.75 183.398 1107.15 185.108 1104.37 186.174H1104.36ZM1104.49 184.303C1106.88 183.386 1109.09 181.935 1111.13 179.94C1113.16 177.904 1114.77 175.636 1115.94 173.15C1117.16 170.604 1117.76 168.117 1117.76 165.69C1117.76 163.263 1117.16 161.309 1115.94 159.693C1114.73 158.077 1113.1 157.052 1111.06 156.626C1109.02 156.152 1106.82 156.371 1104.43 157.289C1102.04 158.207 1099.81 159.687 1097.73 161.747C1095.69 163.784 1094.04 166.087 1092.78 168.65C1091.57 171.196 1090.96 173.665 1090.96 176.045C1090.96 178.424 1091.57 180.426 1092.78 182.042C1094.04 183.599 1095.71 184.605 1097.79 185.061C1099.87 185.476 1102.11 185.227 1104.49 184.309V184.303ZM1130.46 139.487C1129.86 139.718 1129.31 139.712 1128.83 139.463C1128.4 139.197 1128.18 138.735 1128.18 138.09C1128.18 137.486 1128.4 136.882 1128.83 136.278C1129.31 135.662 1129.85 135.236 1130.46 135.005C1131.07 134.774 1131.59 134.792 1132.03 135.059C1132.51 135.307 1132.74 135.739 1132.74 136.343C1132.74 136.994 1132.51 137.628 1132.03 138.244C1131.59 138.842 1131.07 139.262 1130.46 139.493V139.487ZM1129.42 146.585L1131.5 145.786V175.044L1129.42 175.843V146.585ZM1151.67 167.697C1148.46 168.928 1145.8 168.976 1143.67 167.839C1141.59 166.685 1140.55 164.399 1140.55 160.977V130.547L1142.63 129.748V141.518L1151.61 138.072V139.889L1142.63 143.335V160.172C1142.63 163.032 1143.48 164.962 1145.16 165.962C1146.9 166.898 1149.07 166.868 1151.67 165.874V167.691L1151.67 167.697ZM999.08 292.165C994.525 293.911 990.343 294.414 986.522 293.668C982.707 292.881 979.669 290.969 977.418 287.932C975.208 284.835 974.101 280.839 974.101 275.943C974.101 271.047 975.25 266.465 977.548 261.681C979.888 256.88 982.992 252.617 986.848 248.882C990.751 245.128 994.892 242.417 999.275 240.735C1002.31 239.569 1004.72 238.93 1006.5 238.811C1008.27 238.651 1010.33 238.793 1012.67 239.238V241.641C1010.46 240.972 1008.4 240.7 1006.5 240.824C1004.63 240.889 1002.29 241.464 999.471 242.547C995.176 244.193 991.255 246.804 987.695 250.379C984.182 253.896 981.386 257.892 979.301 262.374C977.264 266.796 976.245 271.112 976.245 275.316C976.245 279.519 977.287 283.107 979.367 285.948C981.446 288.79 984.2 290.637 987.63 291.49C991.101 292.283 994.827 291.916 998.819 290.383C1001.68 289.287 1004.17 288.003 1006.3 286.535C1008.43 285.025 1010.55 283.148 1012.67 280.904V283.308C1010.59 285.362 1008.44 287.097 1006.24 288.512C1004.07 289.951 1001.68 291.17 999.08 292.165ZM1020.88 233.738L1022.96 232.938V258.49C1023.88 256.193 1025.42 253.997 1027.58 251.907C1029.79 249.758 1032.03 248.248 1034.28 247.384C1038.41 245.803 1041.57 245.714 1043.78 247.123C1046.03 248.515 1047.16 251.267 1047.16 255.382V272.415L1045.08 273.214V256.181C1045.08 252.629 1044.13 250.261 1042.22 249.089C1040.35 247.851 1037.71 247.893 1034.28 249.207C1032.2 250.006 1030.29 251.238 1028.56 252.901C1026.83 254.518 1025.46 256.389 1024.46 258.502C1023.47 260.574 1022.96 262.628 1022.96 264.665V281.698L1020.88 282.497V233.732V233.738ZM1057.91 232.34C1057.31 232.571 1056.76 232.565 1056.28 232.317C1055.85 232.05 1055.63 231.589 1055.63 230.943C1055.63 230.333 1055.85 229.735 1056.28 229.132C1056.76 228.516 1057.3 228.09 1057.91 227.859C1058.52 227.628 1059.04 227.646 1059.48 227.912C1059.95 228.161 1060.19 228.593 1060.19 229.197C1060.19 229.848 1059.95 230.481 1059.48 231.097C1059.04 231.695 1058.52 232.115 1057.91 232.346V232.34ZM1056.87 239.433L1058.95 238.634V267.892L1056.87 268.691V239.433ZM1068.66 234.916L1070.74 234.116V240.617C1071.69 238.083 1073.32 235.727 1075.62 233.542C1077.91 231.316 1080.45 229.67 1083.23 228.605C1086.83 227.225 1089.67 227.284 1091.75 228.782C1093.88 230.221 1094.94 232.98 1094.94 237.053V254.086L1092.86 254.885V237.852C1092.86 234.341 1091.99 231.944 1090.26 230.659C1088.56 229.357 1086.18 229.297 1083.1 230.481C1080.85 231.346 1078.77 232.666 1076.86 234.436C1074.99 236.147 1073.5 238.107 1072.37 240.321C1071.29 242.511 1070.74 244.737 1070.74 246.993V263.374L1068.66 264.174V234.916H1068.66ZM1117.07 246.638C1114.12 247.769 1111.45 248.076 1109.07 247.561C1106.68 247.005 1104.82 245.791 1103.47 243.92C1102.13 242.008 1101.46 239.646 1101.46 236.828C1101.46 234.01 1102.13 231.216 1103.47 228.315C1104.86 225.396 1106.73 222.797 1109.07 220.512C1111.45 218.167 1114.09 216.439 1117 215.32C1119.91 214.201 1122.46 213.94 1124.81 214.473C1127.2 214.947 1129.06 216.113 1130.4 217.984C1131.75 219.855 1132.42 222.175 1132.42 224.946C1132.42 227.717 1131.76 230.766 1130.47 233.69C1129.16 236.573 1127.35 239.178 1125.01 241.511C1122.71 243.778 1120.06 245.489 1117.07 246.638ZM1117.07 244.82C1119.54 243.873 1121.8 242.381 1123.83 240.339C1125.87 238.302 1127.45 236.023 1128.58 233.513C1129.76 230.937 1130.34 228.397 1130.34 225.881C1130.34 223.365 1129.76 221.341 1128.58 219.665C1127.41 217.99 1125.81 216.918 1123.77 216.439C1121.73 215.965 1119.47 216.202 1117 217.149C1114.53 218.096 1112.25 219.624 1110.17 221.719C1108.14 223.756 1106.51 226.071 1105.29 228.664C1104.12 231.239 1103.53 233.761 1103.53 236.23C1103.53 238.699 1104.12 240.771 1105.29 242.446C1106.51 244.063 1108.14 245.104 1110.17 245.578C1112.25 246.034 1114.55 245.785 1117.07 244.82ZM1141.46 200.288C1140.85 200.519 1140.31 200.513 1139.83 200.264C1139.39 199.998 1139.17 199.536 1139.17 198.891C1139.17 198.281 1139.39 197.683 1139.83 197.079C1140.31 196.464 1140.85 196.037 1141.46 195.806C1142.07 195.576 1142.58 195.593 1143.02 195.86C1143.5 196.108 1143.74 196.541 1143.74 197.144C1143.74 197.796 1143.5 198.429 1143.02 199.045C1142.59 199.643 1142.07 200.063 1141.46 200.294V200.288ZM1140.41 207.386L1142.49 206.587V235.845L1140.41 236.644V207.386ZM1159.28 230.12C1157.21 230.92 1155.36 231.281 1153.76 231.204C1152.15 231.085 1151 230.594 1150.31 229.73V226.284C1151.13 227.829 1152.26 228.788 1153.69 229.149C1155.13 229.469 1156.95 229.203 1159.15 228.356C1161.36 227.509 1162.99 226.231 1164.3 224.437C1165.6 222.596 1166.24 220.63 1166.24 218.552C1166.24 216.776 1165.88 215.551 1165.14 214.882C1164.4 214.165 1163.21 213.626 1161.56 213.265L1159.09 212.786C1157.31 212.383 1155.97 212.058 1155.06 211.797C1154.19 211.477 1153.49 211.033 1152.98 210.447C1152.46 209.826 1152.19 208.967 1152.19 207.884C1152.19 206.149 1152.8 204.533 1154.02 203.023C1155.23 201.519 1156.81 200.389 1158.77 199.643C1161.16 198.725 1163.15 198.506 1164.75 198.974V201.833C1163.41 200.572 1161.48 200.424 1158.96 201.389C1157.58 201.922 1156.45 202.704 1155.58 203.728C1154.72 204.752 1154.28 205.812 1154.28 206.895C1154.28 207.848 1154.54 208.594 1155.06 209.133C1155.58 209.624 1156.3 210.003 1157.21 210.258C1158.16 210.501 1159.72 210.808 1161.89 211.193C1164.1 211.602 1165.73 212.277 1166.77 213.224C1167.81 214.124 1168.34 215.639 1168.34 217.759C1168.34 220.447 1167.45 222.957 1165.67 225.283C1163.93 227.551 1161.81 229.167 1159.3 230.132L1159.28 230.12Z" fill="white"/>
<path id="Vector_2" d="M1171.4 131.447C1188.29 125.693 1198.78 124.136 1201.62 126.971C1204.46 129.807 1199.54 136.912 1187.44 147.444C1175.34 157.982 1156.56 171.504 1133.32 186.429C1110.09 201.348 1083.36 217.042 1056.29 231.654C1029.23 246.265 1002.96 259.189 980.587 268.892C958.214 278.601 940.669 284.687 930.025 286.434C919.38 288.18 916.081 285.516 920.512 278.755C924.942 271.994 936.925 261.415 955.039 248.272" stroke="white" stroke-width="2"/>
<g id="stars">
<path id="Vector_3" d="M952 202V214.5M948 208H956" stroke="#E9C758" stroke-width="2"/>
<path id="Vector_4" d="M1174 172V191M1180 181.12H1168" stroke="#E9C758" stroke-width="2"/>
<path id="Vector_5" d="M943.333 214V222M940.5 217.84H946" stroke="#E9C758" stroke-width="2"/>
<path id="Vector_6" d="M1186.88 190V202M1191 195.76H1183" stroke="#E9C758" stroke-width="2"/>
</g>
</g>
<g id="ent">
<line id="Line 1" x1="30.2739" y1="400.42" x2="30.2739" y2="481.34" stroke="white" stroke-width="2"/>
<line id="Line 2" y1="-1" x2="54.5654" y2="-1" transform="matrix(0.988279 -0.152661 0.250679 0.96807 36.9775 394.47)" stroke="white" stroke-width="2"/>
<line id="Line 3" y1="-1" x2="54.5654" y2="-1" transform="matrix(0.988279 -0.152661 0.250679 0.96807 10.7852 440.88)" stroke="white" stroke-width="2"/>
<line id="Line 4" y1="-1" x2="36.1491" y2="-1" transform="matrix(0.9803 -0.197515 0.319998 0.947418 38.5186 484.91)" stroke="white" stroke-width="2"/>
<line id="Line 5" y1="-1" x2="69.1746" y2="-1" transform="matrix(-0.0668195 -0.997765 0.999203 -0.0399177 100.148 484.91)" stroke="white" stroke-width="2"/>
<line id="Line 6" y1="-1" x2="79.0374" y2="-1" transform="matrix(0.428863 0.90337 -0.962161 0.272482 100.148 413.51)" stroke="white" stroke-width="2"/>
<line id="Line 7" y1="-1" x2="88.1812" y2="-1" transform="matrix(0.0524172 -0.998625 0.99951 0.0312965 147.911 477.77)" stroke="white" stroke-width="2"/>
<line id="Line 8" y1="-1" x2="84.8741" y2="-1" transform="matrix(0.998426 0.0560831 -0.093748 0.995596 160.236 384.95)" stroke="white" stroke-width="2"/>
<line id="Line 9" y1="-1" x2="93.4767" y2="-1" transform="matrix(-0.197791 0.980244 -0.992834 -0.119505 200.296 389.71)" stroke="white" stroke-width="2"/>
<g id="stars_2">
<path id="Vector_7" d="M23.8813 383.76V396.85M29.2739 390.043H18.4888" stroke="#E9C758" stroke-width="2"/>
<path id="Vector_8" d="M181.037 484.91V498M186.429 491.193H175.644" stroke="#E9C758" stroke-width="2"/>
<path id="Vector_9" d="M144.63 480.661L142.55 490.09M147.516 485.698L139.747 484.676" stroke="#E9C758" stroke-width="2"/>
<path id="Vector_10" d="M72.215 424.731L70.1355 434.159M75.101 429.768L67.3327 428.746" stroke="#E9C758" stroke-width="2"/>
<path id="Vector_11" d="M96.0476 380.231L101.057 388.978M102.056 383.198L94.8489 385.661" stroke="#E9C758" stroke-width="2"/>
<path id="Vector_12" d="M80.7773 471.495L82.4296 480.974M85.4753 475.639L77.6655 476.451" stroke="#E9C758" stroke-width="2"/>
<path id="Vector_13" d="M153.202 379.383L152.517 385.209M155.273 382.348L150.473 382.011" stroke="#E9C758" stroke-width="2"/>
<path id="Vector_14" d="M96.2961 403.99V412.32M100.148 407.988H92.4443" stroke="#E9C758" stroke-width="2"/>
<path id="Vector_15" d="M3.08161 438.5V444.45M6.16309 441.356H0.000138283" stroke="#E9C758" stroke-width="2"/>
<path id="Vector_16" d="M30.815 484.91V494.43M33.8965 489.48H27.7335" stroke="#E9C758" stroke-width="2"/>
<path id="Vector_17" d="M252.681 383.76V393.28M255.763 388.33H249.6" stroke="#E9C758" stroke-width="2"/>
</g>
</g>
<g id="datadopt" clip-path="url(#clip1_0_1)">
<path id="Vector_18" d="M219 63.25L220.54 63.72C226.27 65.47 230.68 68.39 233.79 72.47C236.93 76.53 238.49 81.44 238.49 87.2C238.49 90.5 237.69 93.28 236.09 95.54C234.49 97.8 232.31 99.31 229.56 100.07C226.84 100.84 223.83 100.72 220.54 99.71L219 99.24V63.24V63.25ZM220.92 98.35C223.86 99.25 226.55 99.35 228.98 98.66C231.41 97.93 233.33 96.52 234.74 94.42C236.18 92.33 236.9 89.77 236.9 86.73C236.9 81.42 235.51 76.91 232.72 73.21C229.97 69.49 226.03 66.85 220.91 65.28L220.53 65.16V98.23L220.91 98.35H220.92ZM253.95 110.47C251.9 109.84 250 108.75 248.24 107.19C246.48 105.63 245.09 103.83 244.06 101.79C243.04 99.72 242.52 97.67 242.52 95.66C242.52 93.65 243.03 91.93 244.06 90.51C245.08 89.06 246.48 88.1 248.24 87.61C250 87.12 251.9 87.19 253.95 87.82C256 88.45 258 89.62 259.85 91.31C261.71 92.97 263 94.79 263.74 96.77V91.35L265.28 91.82V113.42L263.74 112.95V107.57C262.88 109.1 261.53 110.13 259.71 110.66C257.92 111.17 256 111.11 253.95 110.48V110.47ZM254.05 109.15C255.81 109.69 257.44 109.74 258.95 109.3C260.45 108.83 261.64 107.98 262.5 106.74C263.4 105.48 263.84 103.95 263.84 102.16C263.84 100.37 263.39 98.62 262.5 96.81C261.6 95 260.4 93.42 258.9 92.06C257.4 90.67 255.76 89.71 254 89.17C252.24 88.63 250.59 88.59 249.06 89.05C247.56 89.52 246.34 90.38 245.41 91.63C244.51 92.89 244.07 94.4 244.07 96.16C244.07 97.92 244.52 99.7 245.41 101.51C246.34 103.3 247.57 104.89 249.11 106.29C250.65 107.66 252.29 108.61 254.05 109.15ZM279.07 117.91C276.7 117.19 274.73 115.86 273.17 113.94C271.63 112.03 270.87 109.81 270.87 107.28V84.82L272.41 85.29V93.98L279.03 96.01V97.35L272.41 95.32V107.75C272.41 109.86 273.03 111.72 274.28 113.31C275.56 114.89 277.16 115.97 279.08 116.55V117.89L279.07 117.91ZM293.28 122.49C291.23 121.86 289.33 120.77 287.57 119.21C285.81 117.65 284.42 115.85 283.39 113.81C282.37 111.74 281.85 109.69 281.85 107.68C281.85 105.67 282.36 103.95 283.39 102.53C284.41 101.08 285.81 100.12 287.57 99.63C289.33 99.14 291.23 99.21 293.28 99.84C295.33 100.47 297.33 101.64 299.18 103.33C301.04 104.99 302.33 106.81 303.07 108.79V103.37L304.61 103.84V125.44L303.07 124.97V119.59C302.21 121.12 300.86 122.15 299.04 122.68C297.25 123.19 295.33 123.13 293.28 122.5V122.49ZM293.38 121.18C295.14 121.72 296.77 121.77 298.28 121.33C299.78 120.86 300.97 120.01 301.83 118.77C302.73 117.51 303.17 115.98 303.17 114.19C303.17 112.4 302.72 110.65 301.83 108.84C300.93 107.03 299.73 105.45 298.23 104.09C296.73 102.7 295.09 101.74 293.33 101.2C291.57 100.66 289.92 100.62 288.39 101.08C286.89 101.55 285.67 102.41 284.74 103.66C283.84 104.92 283.4 106.43 283.4 108.19C283.4 109.95 283.85 111.73 284.74 113.54C285.67 115.33 286.9 116.92 288.44 118.32C289.98 119.69 291.62 120.64 293.38 121.18ZM320.85 130.92C318.77 130.28 316.85 129.18 315.09 127.62C313.36 126.07 311.99 124.27 310.96 122.23C309.94 120.19 309.42 118.14 309.42 116.1C309.42 114.06 309.93 112.32 310.96 110.91C311.98 109.5 313.36 108.54 315.09 108.04C316.85 107.55 318.77 107.63 320.85 108.27C322.93 108.91 324.79 110.02 326.61 111.66C328.43 113.27 329.78 115.08 330.64 117.07V97.39L332.18 97.86V133.86L330.64 133.39V128.16C329.68 129.59 328.29 130.56 326.46 131.06C324.67 131.57 322.8 131.52 320.84 130.93L320.85 130.92ZM320.8 129.56C322.56 130.1 324.19 130.15 325.7 129.71C327.24 129.25 328.45 128.41 329.35 127.18C330.28 125.93 330.74 124.42 330.74 122.66C330.74 120.9 330.28 119.11 329.35 117.29C328.45 115.48 327.24 113.88 325.7 112.48C324.2 111.09 322.56 110.13 320.8 109.59C319.04 109.05 317.41 109.02 315.9 109.48C314.4 109.92 313.2 110.77 312.3 112.03C311.4 113.29 310.96 114.8 310.96 116.56C310.96 118.32 311.39 120.15 312.26 121.95C313.16 123.73 314.36 125.31 315.86 126.7C317.4 128.07 319.04 129.02 320.8 129.56ZM348.5 139.62C346.32 138.95 344.36 137.83 342.6 136.23C340.84 134.6 339.46 132.76 338.47 130.7C337.48 128.6 336.98 126.52 336.98 124.44C336.98 122.36 337.48 120.64 338.47 119.18C339.49 117.73 340.87 116.76 342.6 116.27C344.36 115.75 346.31 115.82 348.46 116.48C350.61 117.14 352.49 118.24 354.22 119.83C355.98 121.39 357.36 123.2 358.35 125.27C359.34 127.33 359.84 129.39 359.84 131.44C359.84 133.49 359.36 135.41 358.4 136.9C357.44 138.37 356.1 139.36 354.37 139.89C352.67 140.4 350.72 140.31 348.51 139.64L348.5 139.62ZM348.5 138.27C350.32 138.83 351.99 138.87 353.49 138.4C354.99 137.93 356.16 137.06 356.99 135.78C357.85 134.48 358.29 132.9 358.29 131.04C358.29 129.18 357.86 127.39 356.99 125.56C356.13 123.73 354.94 122.12 353.44 120.73C351.94 119.34 350.27 118.37 348.45 117.81C346.63 117.25 344.95 117.22 343.41 117.71C341.91 118.18 340.71 119.06 339.81 120.35C338.95 121.65 338.51 123.22 338.51 125.04C338.51 126.86 338.94 128.69 339.81 130.52C340.71 132.33 341.91 133.93 343.41 135.32C344.95 136.72 346.64 137.7 348.5 138.27ZM364.62 122.18L366.16 122.65V127.93C367.02 126.47 368.37 125.49 370.19 124.99C372.01 124.46 373.93 124.5 375.95 125.12C377.97 125.74 379.93 126.85 381.66 128.4C383.42 129.96 384.81 131.76 385.84 133.8C386.86 135.84 387.38 137.89 387.38 139.93C387.38 141.97 386.87 143.71 385.84 145.12C384.81 146.53 383.42 147.49 381.66 147.97C379.93 148.47 378.03 148.4 375.95 147.76C374 147.16 372.11 146.06 370.29 144.44C368.5 142.84 367.12 141.02 366.16 139V153.83L364.62 153.36V122.16V122.18ZM376.05 146.45C377.81 146.99 379.44 147.04 380.95 146.6C382.45 146.13 383.64 145.28 384.5 144.04C385.4 142.78 385.84 141.25 385.84 139.46C385.84 137.67 385.39 135.92 384.5 134.11C383.6 132.3 382.4 130.72 380.9 129.36C379.4 127.97 377.76 127.01 376 126.47C374.24 125.93 372.59 125.89 371.06 126.35C369.56 126.82 368.34 127.68 367.41 128.93C366.51 130.19 366.07 131.7 366.07 133.46C366.07 135.22 366.52 137 367.41 138.81C368.34 140.6 369.57 142.19 371.11 143.59C372.65 144.96 374.29 145.91 376.05 146.45ZM399.91 154.85C397.54 154.13 395.57 152.8 394.01 150.88C392.47 148.97 391.71 146.75 391.71 144.22V121.76L393.25 122.23V130.92L399.87 132.95V134.29L393.25 132.26V144.69C393.25 146.8 393.87 148.66 395.12 150.25C396.4 151.83 398 152.91 399.92 153.49V154.83L399.91 154.85ZM402.13 126.3C404.02 126.01 404.96 124.83 404.96 122.75V117.23L406.69 117.76V123.28C406.69 124.78 406.27 125.95 405.44 126.79C404.61 127.59 403.5 127.99 402.13 127.99V126.31V126.3Z" fill="white"/>
<path id="Ellipse 6" d="M277 41.7079C293.631 25.1354 314.819 13.8493 337.886 9.27699C360.954 4.70465 384.863 7.05135 406.592 16.0203C428.321 24.9893 446.893 40.1778 459.959 59.665C473.026 79.1522 480 102.063 480 125.5C480 148.937 473.026 171.848 459.959 191.335C446.893 210.822 428.321 226.011 406.592 234.98C384.863 243.949 360.953 246.295 337.886 241.723C314.819 237.151 293.63 225.865 277 209.292" stroke="white" stroke-width="2"/>
<g id="stars_3">
<path id="Vector_19" d="M269 151V176M277 163H261" stroke="#E9C758" stroke-width="2"/>
<path id="Vector_20" d="M429 80V105M437 92H421" stroke="#E9C758" stroke-width="2"/>
<path id="Vector_21" d="M246 136V153M252 144.16H240" stroke="#E9C758" stroke-width="2"/>
<path id="Vector_22" d="M240 159V168M243 163.32H237" stroke="#E9C758" stroke-width="2"/>
<path id="Vector_23" d="M445 116V125M448 120.32H442" stroke="#E9C758" stroke-width="2"/>
</g>
</g>
<g id="Frame">
<path id="Vector_24" d="M436.676 722.611L459.369 699.319L395.278 688.317L365.012 630.745L334.746 688.317L270.654 699.319L293.347 722.611M418.656 778.089L423.328 810.275L365.012 781.492L306.696 810.275L311.368 778.089" stroke="white" stroke-width="2"/>
<path id="Vector_25" d="M280.638 779.295V810.503M290.622 794.275H270.654" stroke="#E9C758" stroke-width="2"/>
<path id="Vector_26" d="M255.679 771.805V788.034M260.671 779.595H250.687" stroke="#E9C758" stroke-width="2"/>
<path id="Vector_27" d="M424.778 701.899V723.121M431.642 712.086H417.915" stroke="#E9C758" stroke-width="2"/>
<path id="Vector_28" d="M250.757 765.094L241.292 743.104L231.708 765.094L212 719.376H214.097L231.768 760.241L240.274 740.707L231.049 719.376H233.086L241.472 738.73L249.918 719.376H251.775L242.43 740.947L250.877 760.421L268.608 719.376H270.704L250.757 765.094ZM282.009 763.357C284.086 763.357 286.062 762.817 287.939 761.739C289.816 760.66 291.374 759.182 292.612 757.305V760.361C291.134 761.999 289.517 763.197 287.76 763.956C286.003 764.675 284.006 765.035 281.769 765.035C279.294 765.035 276.957 764.375 274.761 763.057C272.604 761.739 270.867 759.981 269.549 757.784C268.271 755.587 267.633 753.25 267.633 750.774C267.633 748.097 268.271 745.7 269.549 743.583C270.827 741.426 272.564 739.748 274.761 738.55C276.997 737.352 279.473 736.753 282.189 736.753C286.342 736.753 289.876 738.39 292.792 741.666L273.982 760.241C275.3 761.32 276.578 762.118 277.816 762.638C279.054 763.117 280.452 763.357 282.009 763.357ZM269.549 750.594C269.549 753.909 270.648 756.746 272.844 759.102L290.395 741.666C289.078 740.507 287.8 739.689 286.562 739.209C285.324 738.69 283.846 738.43 282.129 738.43C279.693 738.43 277.516 738.97 275.6 740.048C273.723 741.087 272.245 742.525 271.167 744.362C270.089 746.2 269.549 748.277 269.549 750.594ZM312.92 764.975C310.484 764.975 308.128 764.315 305.852 762.997C303.615 761.679 301.898 759.941 300.7 757.784V764.315H298.783V719.376H300.7V744.183C301.778 741.906 303.456 740.088 305.732 738.73C308.008 737.372 310.404 736.693 312.92 736.693C315.516 736.693 317.892 737.332 320.049 738.61C322.245 739.888 323.982 741.606 325.26 743.763C326.538 745.92 327.177 748.277 327.177 750.834C327.177 753.39 326.538 755.747 325.26 757.904C323.982 760.061 322.245 761.779 320.049 763.057C317.892 764.335 315.516 764.975 312.92 764.975ZM313.04 763.297C315.236 763.297 317.273 762.738 319.15 761.619C321.027 760.461 322.505 758.943 323.583 757.065C324.701 755.148 325.26 753.071 325.26 750.834C325.26 748.637 324.701 746.579 323.583 744.662C322.465 742.744 320.967 741.227 319.09 740.108C317.213 738.95 315.176 738.37 312.98 738.37C310.784 738.37 308.727 738.95 306.81 740.108C304.933 741.266 303.416 742.804 302.257 744.722C301.139 746.639 300.58 748.696 300.58 750.894C300.58 753.091 301.139 755.148 302.257 757.065C303.416 758.943 304.953 760.461 306.87 761.619C308.787 762.738 310.844 763.297 313.04 763.297ZM356.706 765.154C351.714 765.154 347.84 763.097 345.085 758.983V755.747C346.163 758.144 347.72 760.021 349.757 761.379C351.834 762.738 354.309 763.417 357.185 763.417C359.182 763.417 361.019 762.977 362.696 762.098C364.413 761.22 365.771 759.981 366.769 758.383C367.768 756.786 368.267 754.948 368.267 752.871C368.267 750.993 367.947 749.376 367.308 748.017C366.669 746.659 365.611 745.361 364.133 744.123C362.656 742.844 360.519 741.346 357.724 739.629L355.807 738.43C354.05 737.352 352.632 736.393 351.554 735.554C350.476 734.715 349.537 733.737 348.739 732.618C347.7 731.06 347.181 729.263 347.181 727.225C347.181 724.509 348.06 722.392 349.817 720.874C351.574 719.356 353.81 718.597 356.526 718.597C360.2 718.597 363.115 719.955 365.272 722.671V725.727C364.353 724.05 363.095 722.731 361.498 721.773C359.9 720.814 358.143 720.335 356.226 720.335C354.23 720.335 352.552 720.954 351.195 722.192C349.837 723.43 349.158 725.088 349.158 727.165C349.158 729.203 349.777 730.96 351.015 732.438C352.293 733.876 354.429 735.454 357.424 737.172C361.098 739.329 363.954 741.286 365.99 743.044C367.428 744.362 368.466 745.82 369.105 747.418C369.784 749.016 370.124 750.794 370.124 752.751C370.124 755.228 369.545 757.405 368.387 759.282C367.228 761.16 365.631 762.618 363.594 763.656C361.558 764.655 359.261 765.154 356.706 765.154ZM389.11 764.975C386.554 764.975 384.178 764.335 381.982 763.057C379.785 761.779 378.048 760.061 376.77 757.904C375.492 755.707 374.854 753.35 374.854 750.834C374.854 748.317 375.492 745.98 376.77 743.823C378.048 741.626 379.785 739.888 381.982 738.61C384.178 737.332 386.554 736.693 389.11 736.693C391.706 736.693 394.162 737.392 396.478 738.79C398.795 740.148 400.412 741.926 401.33 744.123V737.352H403.247V764.315H401.33V757.604C400.252 759.841 398.575 761.639 396.299 762.997C394.062 764.315 391.666 764.975 389.11 764.975ZM389.23 763.297C391.427 763.297 393.463 762.738 395.34 761.619C397.217 760.461 398.695 758.943 399.773 757.065C400.891 755.148 401.45 753.071 401.45 750.834C401.45 748.637 400.891 746.579 399.773 744.662C398.655 742.744 397.157 741.227 395.28 740.108C393.403 738.95 391.367 738.37 389.17 738.37C386.974 738.37 384.917 738.95 383 740.108C381.123 741.266 379.606 742.804 378.448 744.722C377.329 746.639 376.77 748.696 376.77 750.894C376.77 753.091 377.329 755.148 378.448 757.065C379.606 758.943 381.143 760.461 383.06 761.619C384.977 762.738 387.034 763.297 389.23 763.297ZM421.051 764.855C419.174 764.855 417.457 764.435 415.899 763.596C414.342 762.718 413.104 761.499 412.185 759.941C411.267 758.383 410.807 756.646 410.807 754.728V719.376H412.724V754.728C412.724 756.326 413.084 757.764 413.803 759.043C414.561 760.321 415.58 761.339 416.858 762.098C418.136 762.817 419.533 763.177 421.051 763.177V764.855ZM438.252 765.274C435.536 765.274 433.08 764.615 430.884 763.297C428.687 761.939 426.97 760.161 425.732 757.964C424.494 755.727 423.875 753.31 423.875 750.714C423.875 748.157 424.494 745.78 425.732 743.583C427.01 741.386 428.727 739.649 430.884 738.37C433.08 737.052 435.516 736.393 438.192 736.393C440.827 736.393 443.223 737.052 445.38 738.37C447.576 739.649 449.294 741.386 450.532 743.583C451.77 745.78 452.388 748.157 452.388 750.714C452.388 753.39 451.789 755.847 450.591 758.084C449.393 760.281 447.716 762.039 445.56 763.357C443.443 764.635 441.007 765.274 438.252 765.274ZM438.252 763.596C440.528 763.596 442.604 763.017 444.481 761.859C446.358 760.7 447.816 759.162 448.854 757.245C449.932 755.288 450.472 753.15 450.472 750.834C450.472 748.557 449.932 746.44 448.854 744.482C447.776 742.525 446.298 740.967 444.421 739.808C442.545 738.65 440.468 738.071 438.192 738.071C435.915 738.071 433.819 738.67 431.902 739.868C430.025 741.027 428.527 742.585 427.409 744.542C426.331 746.499 425.792 748.617 425.792 750.894C425.792 753.17 426.331 755.288 427.409 757.245C428.527 759.162 430.025 760.7 431.902 761.859C433.819 763.017 435.935 763.596 438.252 763.596ZM471.187 765.274C468.471 765.274 466.015 764.615 463.819 763.297C461.622 761.939 459.905 760.161 458.667 757.964C457.429 755.727 456.81 753.31 456.81 750.714C456.81 748.157 457.429 745.78 458.667 743.583C459.945 741.386 461.662 739.649 463.819 738.37C466.015 737.052 468.451 736.393 471.127 736.393C473.762 736.393 476.159 737.052 478.315 738.37C480.511 739.649 482.229 741.386 483.467 743.583C484.705 745.78 485.324 748.157 485.324 750.714C485.324 753.39 484.725 755.847 483.527 758.084C482.328 760.281 480.651 762.039 478.495 763.357C476.378 764.635 473.942 765.274 471.187 765.274ZM471.187 763.596C473.463 763.596 475.54 763.017 477.416 761.859C479.293 760.7 480.751 759.162 481.789 757.245C482.868 755.288 483.407 753.15 483.407 750.834C483.407 748.557 482.868 746.44 481.789 744.482C480.711 742.525 479.234 740.967 477.357 739.808C475.48 738.65 473.403 738.071 471.127 738.071C468.85 738.071 466.754 738.67 464.837 739.868C462.96 741.027 461.462 742.585 460.344 744.542C459.266 746.499 458.727 748.617 458.727 750.894C458.727 753.17 459.266 755.288 460.344 757.245C461.462 759.162 462.96 760.7 464.837 761.859C466.754 763.017 468.87 763.596 471.187 763.596ZM490.717 737.352H492.634V743.344C493.513 741.346 495.01 739.748 497.127 738.55C499.243 737.312 501.58 736.693 504.135 736.693C507.45 736.693 510.066 737.751 511.983 739.868C513.939 741.946 514.918 744.862 514.918 748.617V764.315H513.001V748.617C513.001 745.381 512.202 742.864 510.605 741.067C509.047 739.269 506.851 738.37 504.016 738.37C501.939 738.37 500.022 738.85 498.265 739.808C496.548 740.727 495.17 742.005 494.132 743.643C493.133 745.281 492.634 747.139 492.634 749.216V764.315H490.717V737.352Z" fill="white"/>
</g>
<g id="Frame_2">
<path id="Vector_29" d="M1082.15 488.697H1084.57C1088.95 488.697 1092.32 489.857 1094.68 492.178C1097.08 494.499 1098.28 497.812 1098.28 502.117C1098.28 504.588 1097.68 506.852 1096.48 508.911C1095.32 510.97 1093.73 512.598 1091.71 513.796C1089.68 514.957 1087.45 515.537 1085.02 515.537H1084.63L1099.12 530.81H1096.71L1083.95 517.446V530.81H1082.15V488.697ZM1084.96 513.909C1087.1 513.909 1089.05 513.385 1090.81 512.336C1092.57 511.288 1093.95 509.885 1094.97 508.125C1095.98 506.328 1096.48 504.344 1096.48 502.173C1096.48 498.392 1095.45 495.472 1093.39 493.414C1091.37 491.355 1088.47 490.325 1084.68 490.325H1083.95V513.909H1084.96ZM1116.78 529.912C1118.72 529.912 1120.58 529.406 1122.34 528.396C1124.1 527.385 1125.56 526 1126.72 524.24V527.104C1125.34 528.639 1123.82 529.762 1122.17 530.473C1120.52 531.147 1118.65 531.484 1116.55 531.484C1114.23 531.484 1112.04 530.866 1109.98 529.631C1107.95 528.396 1106.32 526.749 1105.09 524.69C1103.89 522.631 1103.29 520.441 1103.29 518.12C1103.29 515.612 1103.89 513.366 1105.09 511.382C1106.29 509.36 1107.91 507.788 1109.98 506.665C1112.07 505.542 1114.4 504.981 1116.94 504.981C1120.84 504.981 1124.16 506.515 1126.89 509.585L1109.24 526.992C1110.48 528.003 1111.68 528.751 1112.84 529.238C1114 529.687 1115.31 529.912 1116.78 529.912ZM1105.09 517.952C1105.09 521.059 1106.12 523.716 1108.18 525.925L1124.64 509.585C1123.41 508.499 1122.21 507.732 1121.05 507.283C1119.89 506.796 1118.5 506.553 1116.89 506.553C1114.6 506.553 1112.56 507.058 1110.76 508.069C1109 509.042 1107.62 510.39 1106.6 512.112C1105.59 513.834 1105.09 515.78 1105.09 517.952ZM1121.83 494.649H1124.14L1116.33 501.106H1113.97L1121.83 494.649ZM1138.64 531.428C1136.84 531.428 1135.25 531.128 1133.86 530.529C1132.47 529.893 1131.48 529.088 1130.88 528.115V525.139C1131.59 526.749 1132.57 527.946 1133.8 528.733C1135.04 529.481 1136.61 529.856 1138.53 529.856C1140.36 529.856 1141.84 529.294 1142.96 528.171C1144.09 527.011 1144.65 525.532 1144.65 523.735C1144.65 522.2 1144.33 521.021 1143.7 520.198C1143.06 519.337 1142.03 518.476 1140.6 517.615L1138.47 516.379C1136.93 515.443 1135.77 514.714 1134.98 514.189C1134.24 513.628 1133.64 513.01 1133.19 512.336C1132.74 511.625 1132.51 510.802 1132.51 509.866C1132.51 508.368 1133.04 507.171 1134.09 506.272C1135.13 505.374 1136.5 504.925 1138.19 504.925C1140.25 504.925 1141.97 505.392 1143.36 506.328V508.799C1142.2 507.264 1140.53 506.497 1138.36 506.497C1137.16 506.497 1136.18 506.796 1135.43 507.395C1134.69 507.994 1134.31 508.762 1134.31 509.697C1134.31 510.521 1134.54 511.251 1134.98 511.887C1135.43 512.486 1136.05 513.048 1136.84 513.572C1137.66 514.096 1139.01 514.882 1140.89 515.93C1142.8 517.016 1144.2 518.139 1145.1 519.299C1146 520.422 1146.45 521.901 1146.45 523.735C1146.45 526.056 1145.68 527.928 1144.15 529.35C1142.65 530.735 1140.81 531.428 1138.64 531.428ZM1163.96 531.428C1161.57 531.428 1159.34 530.829 1157.28 529.631C1155.21 528.433 1153.59 526.823 1152.39 524.802C1151.19 522.743 1150.59 520.534 1150.59 518.176C1150.59 515.818 1151.19 513.628 1152.39 511.606C1153.59 509.548 1155.21 507.919 1157.28 506.721C1159.34 505.523 1161.57 504.925 1163.96 504.925C1166.4 504.925 1168.7 505.58 1170.88 506.89C1173.05 508.163 1174.57 509.828 1175.43 511.887V505.542H1177.23V530.81H1175.43V524.521C1174.42 526.618 1172.84 528.302 1170.71 529.575C1168.61 530.81 1166.36 531.428 1163.96 531.428ZM1164.08 529.856C1166.14 529.856 1168.05 529.331 1169.81 528.283C1171.57 527.198 1172.95 525.775 1173.97 524.016C1175.02 522.219 1175.54 520.272 1175.54 518.176C1175.54 516.117 1175.02 514.189 1173.97 512.393C1172.92 510.596 1171.51 509.173 1169.75 508.125C1167.99 507.04 1166.08 506.497 1164.02 506.497C1161.96 506.497 1160.03 507.04 1158.23 508.125C1156.47 509.211 1155.05 510.652 1153.96 512.449C1152.91 514.246 1152.39 516.173 1152.39 518.232C1152.39 520.291 1152.91 522.219 1153.96 524.016C1155.05 525.775 1156.49 527.198 1158.29 528.283C1160.09 529.331 1162.01 529.856 1164.08 529.856ZM1204.17 531.428L1198.44 519.187L1192.65 531.428L1180.51 505.542H1182.37L1192.71 527.497L1197.6 517.222L1192.2 505.654H1194L1198.49 515.425L1203.1 505.542H1204.9L1199.39 517.278L1204.17 527.553L1214.34 505.598H1216.14L1204.17 531.428ZM1231.15 529.912C1233.09 529.912 1234.95 529.406 1236.71 528.396C1238.47 527.385 1239.93 526 1241.09 524.24V527.104C1239.71 528.639 1238.19 529.762 1236.54 530.473C1234.89 531.147 1233.02 531.484 1230.92 531.484C1228.6 531.484 1226.41 530.866 1224.35 529.631C1222.32 528.396 1220.69 526.749 1219.46 524.69C1218.26 522.631 1217.66 520.441 1217.66 518.12C1217.66 515.612 1218.26 513.366 1219.46 511.382C1220.66 509.36 1222.29 507.788 1224.35 506.665C1226.44 505.542 1228.77 504.981 1231.32 504.981C1235.21 504.981 1238.53 506.515 1241.26 509.585L1223.62 526.992C1224.85 528.003 1226.05 528.751 1227.21 529.238C1228.37 529.687 1229.69 529.912 1231.15 529.912ZM1219.46 517.952C1219.46 521.059 1220.49 523.716 1222.55 525.925L1239.01 509.585C1237.78 508.499 1236.58 507.732 1235.42 507.283C1234.26 506.796 1232.87 506.553 1231.26 506.553C1228.97 506.553 1226.93 507.058 1225.13 508.069C1223.37 509.042 1221.99 510.39 1220.97 512.112C1219.96 513.834 1219.46 515.78 1219.46 517.952ZM1260.15 531.428C1257.86 531.428 1255.65 530.81 1253.51 529.575C1251.42 528.339 1249.81 526.711 1248.68 524.69V530.81H1246.88V488.697H1248.68V511.943C1249.69 509.81 1251.27 508.106 1253.4 506.834C1255.54 505.561 1257.79 504.925 1260.15 504.925C1262.58 504.925 1264.81 505.523 1266.83 506.721C1268.89 507.919 1270.52 509.529 1271.72 511.55C1272.92 513.572 1273.52 515.78 1273.52 518.176C1273.52 520.572 1272.92 522.781 1271.72 524.802C1270.52 526.823 1268.89 528.433 1266.83 529.631C1264.81 530.829 1262.58 531.428 1260.15 531.428ZM1260.26 529.856C1262.32 529.856 1264.23 529.331 1265.99 528.283C1267.75 527.198 1269.14 525.775 1270.15 524.016C1271.2 522.219 1271.72 520.272 1271.72 518.176C1271.72 516.117 1271.2 514.189 1270.15 512.393C1269.1 510.596 1267.7 509.173 1265.93 508.125C1264.17 507.04 1262.26 506.497 1260.2 506.497C1258.14 506.497 1256.21 507.04 1254.41 508.125C1252.65 509.211 1251.23 510.652 1250.14 512.449C1249.09 514.246 1248.57 516.173 1248.57 518.232C1248.57 520.291 1249.09 522.219 1250.14 524.016C1251.23 525.775 1252.67 527.198 1254.47 528.283C1256.27 529.331 1258.2 529.856 1260.26 529.856Z" fill="white"/>
<path id="Vector_30" d="M835.057 627.535L1101.61 574.86" stroke="white"/>
<path id="Vector_31" d="M863 634.447L1090.83 584.475" stroke="white"/>
<path id="Vector_32" d="M886.368 642.388L1098.69 588.704" stroke="white"/>
<path id="Vector_33" d="M1246.12 570.755V600M1255.49 584.792H1236.75" stroke="#E9C758" stroke-width="2"/>
<path id="Vector_34" d="M1220.95 588.302V604.679M1226.22 596.163H1215.68" stroke="#E9C758" stroke-width="2"/>
<path id="Vector_35" d="M1052.94 533.321V562.566M1062.3 547.359H1043.57" stroke="#E9C758" stroke-width="2"/>
<path id="Vector_36" d="M1035.38 532.151V542.679M1038.89 537.205H1031.86" stroke="#E9C758" stroke-width="2"/>
<path id="Vector_37" d="M901.906 570.755V600M911.272 584.792H892.54" stroke="#E9C758" stroke-width="2"/>
<path id="Vector_38" d="M1009.03 628.075V642.113M1014.3 634.814H1003.76" stroke="#E9C758" stroke-width="2"/>
<g id="Clip path group">
<mask id="mask0_0_1" style="mask-type:luminance" maskUnits="userSpaceOnUse" x="1044" y="476" width="262" height="186">
<g id="clip0_217_280">
<path id="Vector_39" d="M1305.93 612.931L1277.44 476L1044.74 524.33L1073.23 661.261L1305.93 612.931Z" fill="white"/>
</g>
</mask>
<g mask="url(#mask0_0_1)">
<g id="Group">
<path id="Vector_40" d="M1272.29 548.493L1096.38 626.693L1126.86 578.699L1079.76 546.816L1272.29 548.493Z" stroke="white" stroke-width="2" stroke-linecap="round" stroke-linejoin="round"/>
</g>
</g>
</g>
</g>
</g>
<defs>
<clipPath id="clip0_0_1">
<rect width="285" height="169" fill="white" transform="translate(918 125)"/>
</clipPath>
<clipPath id="clip1_0_1">
<rect width="261.21" height="249.9" fill="white" transform="translate(219)"/>
</clipPath>
</defs>
</svg>
