<svg width="473" height="186" viewBox="0 0 473 186" fill="none" xmlns="http://www.w3.org/2000/svg">
<path d="M248.153 12.6969H250.569C254.953 12.6969 258.325 13.8574 260.685 16.1783C263.083 18.4992 264.282 21.8121 264.282 26.117C264.282 28.5876 263.682 30.8524 262.483 32.9112C261.322 34.9701 259.73 36.5985 257.707 37.7964C255.683 38.9568 253.454 39.537 251.019 39.537H250.626L265.125 54.8101H262.708L249.951 41.4462V54.8101H248.153V12.6969ZM250.963 37.9087C253.098 37.9087 255.046 37.3846 256.807 36.3364C258.568 35.2883 259.954 33.8845 260.966 32.1251C261.978 30.3283 262.483 28.3443 262.483 26.1731C262.483 22.3923 261.453 19.4724 259.392 17.4136C257.369 15.3547 254.466 14.3253 250.682 14.3253H249.951V37.9087H250.963ZM282.775 53.9117C284.724 53.9117 286.578 53.4063 288.339 52.3956C290.1 51.3849 291.561 49.9998 292.723 48.2404V51.1041C291.336 52.6389 289.819 53.762 288.17 54.4732C286.522 55.147 284.649 55.4839 282.551 55.4839C280.228 55.4839 278.036 54.8663 275.976 53.6309C273.952 52.3956 272.323 50.7485 271.086 48.6897C269.887 46.6308 269.288 44.4409 269.288 42.12C269.288 39.6119 269.887 37.3659 271.086 35.3819C272.285 33.3604 273.915 31.7882 275.976 30.6652C278.074 29.5422 280.396 28.9807 282.944 28.9807C286.84 28.9807 290.156 30.5155 292.891 33.5851L275.245 50.9918C276.481 52.0026 277.68 52.7512 278.842 53.2379C280.003 53.6871 281.314 53.9117 282.775 53.9117ZM271.086 41.9515C271.086 45.0586 272.117 47.7164 274.177 49.925L290.643 33.5851C289.407 32.4995 288.208 31.7321 287.047 31.2829C285.885 30.7962 284.499 30.5529 282.888 30.5529C280.603 30.5529 278.561 31.0583 276.762 32.069C275.001 33.0423 273.615 34.3899 272.604 36.1118C271.592 37.8338 271.086 39.7804 271.086 41.9515ZM287.833 18.6489H290.137L282.326 25.1063H279.966L287.833 18.6489ZM304.638 55.4278C302.839 55.4278 301.247 55.1283 299.861 54.5294C298.475 53.893 297.482 53.0881 296.882 52.1149V49.1389C297.594 50.7485 298.568 51.9464 299.805 52.7325C301.041 53.4812 302.615 53.8555 304.525 53.8555C306.361 53.8555 307.841 53.294 308.965 52.171C310.089 51.0106 310.651 49.5319 310.651 47.7351C310.651 46.2003 310.332 45.0211 309.696 44.1976C309.059 43.3366 308.028 42.4756 306.605 41.6146L304.469 40.3793C302.933 39.4435 301.772 38.7135 300.985 38.1894C300.236 37.6279 299.636 37.0103 299.186 36.3364C298.737 35.6252 298.512 34.8017 298.512 33.8658C298.512 32.3684 299.037 31.1706 300.086 30.2721C301.135 29.3737 302.502 28.9245 304.188 28.9245C306.249 28.9245 307.972 29.3924 309.358 30.3283V32.7989C308.197 31.2641 306.53 30.4967 304.357 30.4967C303.158 30.4967 302.184 30.7962 301.434 31.3952C300.685 31.9941 300.31 32.7615 300.31 33.6974C300.31 34.5209 300.535 35.2509 300.985 35.8872C301.434 36.4862 302.053 37.0477 302.839 37.5718C303.664 38.0958 305.012 38.882 306.886 39.9301C308.796 41.0157 310.201 42.1387 311.1 43.2992C312 44.4222 312.449 45.9008 312.449 47.7351C312.449 50.056 311.681 51.9277 310.145 53.3502C308.646 54.7352 306.811 55.4278 304.638 55.4278ZM329.963 55.4278C327.565 55.4278 325.336 54.8288 323.276 53.6309C321.215 52.433 319.585 50.8234 318.386 48.802C317.187 46.7431 316.588 44.5345 316.588 42.1761C316.588 39.8178 317.187 37.6279 318.386 35.6065C319.585 33.5476 321.215 31.9192 323.276 30.7214C325.336 29.5235 327.565 28.9245 329.963 28.9245C332.398 28.9245 334.702 29.5796 336.875 30.8898C339.048 32.1626 340.566 33.8284 341.427 35.8872V29.5422H343.226V54.8101H341.427V48.5212C340.416 50.6175 338.842 52.302 336.707 53.5748C334.609 54.8101 332.361 55.4278 329.963 55.4278ZM330.075 53.8555C332.136 53.8555 334.047 53.3315 335.808 52.2833C337.569 51.1977 338.955 49.7752 339.966 48.0158C341.015 46.219 341.54 44.2724 341.54 42.1761C341.54 40.1173 341.015 38.1894 339.966 36.3926C338.917 34.5958 337.512 33.1733 335.752 32.1251C333.991 31.0395 332.08 30.4967 330.019 30.4967C327.959 30.4967 326.029 31.0395 324.231 32.1251C322.47 33.2107 321.046 34.6519 319.96 36.4487C318.911 38.2456 318.386 40.1734 318.386 42.2323C318.386 44.2912 318.911 46.219 319.96 48.0158C321.046 49.7752 322.489 51.1977 324.287 52.2833C326.085 53.3315 328.015 53.8555 330.075 53.8555ZM370.17 55.4278L364.438 43.1869L358.65 55.4278L346.511 29.5422H348.366L358.706 51.4972L363.595 41.2216L358.2 29.6545H359.999L364.494 39.4247L369.103 29.5422H370.901L365.394 41.2777L370.17 51.5534L380.342 29.5983H382.141L370.17 55.4278ZM397.147 53.9117C399.095 53.9117 400.949 53.4063 402.71 52.3956C404.471 51.3849 405.932 49.9998 407.094 48.2404V51.1041C405.708 52.6389 404.19 53.762 402.542 54.4732C400.893 55.147 399.02 55.4839 396.922 55.4839C394.599 55.4839 392.407 54.8663 390.347 53.6309C388.324 52.3956 386.694 50.7485 385.457 48.6897C384.259 46.6308 383.659 44.4409 383.659 42.12C383.659 39.6119 384.259 37.3659 385.457 35.3819C386.656 33.3604 388.286 31.7882 390.347 30.6652C392.445 29.5422 394.768 28.9807 397.315 28.9807C401.212 28.9807 404.527 30.5155 407.262 33.5851L389.616 50.9918C390.852 52.0026 392.051 52.7512 393.213 53.2379C394.374 53.6871 395.686 53.9117 397.147 53.9117ZM385.457 41.9515C385.457 45.0586 386.488 47.7164 388.548 49.925L405.014 33.5851C403.778 32.4995 402.579 31.7321 401.418 31.2829C400.256 30.7962 398.87 30.5529 397.259 30.5529C394.974 30.5529 392.932 31.0583 391.133 32.069C389.373 33.0423 387.986 34.3899 386.975 36.1118C385.963 37.8338 385.457 39.7804 385.457 41.9515ZM426.146 55.4278C423.861 55.4278 421.65 54.8101 419.515 53.5748C417.417 52.3395 415.806 50.7111 414.682 48.6897V54.8101H412.883V12.6969H414.682V35.9434C415.693 33.8097 417.267 32.1064 419.402 30.8337C421.538 29.5609 423.786 28.9245 426.146 28.9245C428.581 28.9245 430.81 29.5235 432.834 30.7214C434.894 31.9192 436.524 33.5289 437.723 35.5503C438.922 37.5718 439.521 39.7804 439.521 42.1761C439.521 44.5719 438.922 46.7805 437.723 48.802C436.524 50.8234 434.894 52.433 432.834 53.6309C430.81 54.8288 428.581 55.4278 426.146 55.4278ZM426.258 53.8555C428.319 53.8555 430.23 53.3315 431.991 52.2833C433.751 51.1977 435.138 49.7752 436.149 48.0158C437.198 46.219 437.723 44.2724 437.723 42.1761C437.723 40.1173 437.198 38.1894 436.149 36.3926C435.1 34.5958 433.695 33.1733 431.934 32.1251C430.174 31.0395 428.263 30.4967 426.202 30.4967C424.142 30.4967 422.212 31.0395 420.414 32.1251C418.653 33.2107 417.229 34.6519 416.143 36.4487C415.094 38.2456 414.569 40.1734 414.569 42.2323C414.569 44.2912 415.094 46.219 416.143 48.0158C417.229 49.7752 418.672 51.1977 420.47 52.2833C422.268 53.3315 424.198 53.8555 426.258 53.8555Z" fill="white"/>
<path d="M1.05713 151.535L267.608 98.8601" stroke="white"/>
<path d="M29 158.447L256.831 108.475" stroke="white"/>
<path d="M52.3677 166.388L264.691 112.704" stroke="white"/>
<path d="M438.292 72.4931L262.383 150.693L292.856 102.699L245.765 70.8162L438.292 72.4931Z" stroke="white" stroke-width="2" stroke-linecap="round" stroke-linejoin="round"/>
<path class="star" d="M412.119 94.7548V124M421.485 108.792H402.752" stroke="#E9C758" stroke-width="2"/>
<path class="star" d="M386.947 112.302V128.679M392.215 120.163H381.678" stroke="#E9C758" stroke-width="2"/>
<path class="star" d="M218.938 57.3208V86.5661M228.304 71.3585H209.572" stroke="#E9C758" stroke-width="2"/>
<path class="star" d="M201.376 56.151V66.6793M204.889 61.2046H197.864" stroke="#E9C758" stroke-width="2"/>
<path class="star" d="M67.9059 94.7548V124M77.2722 108.792H58.5396" stroke="#E9C758" stroke-width="2"/>
<path class="star" d="M175.033 152.075V166.113M180.302 158.814H169.765" stroke="#E9C758" stroke-width="2"/>
</svg>
