<svg width="307" height="186" viewBox="0 0 307 186" fill="none" xmlns="http://www.w3.org/2000/svg">
<path d="M224.676 95.6111L247.369 72.3193L183.278 61.3171L153.012 3.745L122.746 61.3171L58.6543 72.3193L81.3473 95.6111M206.656 151.089L211.328 183.275L153.012 154.492L94.6957 183.275L99.368 151.089" stroke="white" stroke-width="2"/>
<path d="M38.7569 138.094L29.2923 116.104L19.7079 138.094L0 92.3759H2.09659L19.7678 133.241L28.274 113.707L19.049 92.3759H21.0857L29.472 111.73L37.9182 92.3759H39.7752L30.4304 113.947L38.8767 133.421L56.6078 92.3759H58.7044L38.7569 138.094ZM70.0091 136.357C72.0857 136.357 74.0625 135.817 75.9394 134.739C77.8164 133.66 79.3738 132.182 80.6118 130.305V133.361C79.1342 134.999 77.5169 136.197 75.7597 136.956C74.0026 137.675 72.0059 138.035 69.7695 138.035C67.2935 138.035 64.9573 137.375 62.7609 136.057C60.6044 134.739 58.8672 132.981 57.5494 130.784C56.2715 128.587 55.6325 126.25 55.6325 123.774C55.6325 121.097 56.2715 118.7 57.5494 116.583C58.8273 114.426 60.5645 112.748 62.7609 111.55C64.9973 110.352 67.4732 109.753 70.1888 109.753C74.342 109.753 77.8763 111.39 80.7915 114.666L61.9822 133.241C63.3 134.32 64.5779 135.118 65.8159 135.638C67.0539 136.117 68.4516 136.357 70.0091 136.357ZM57.5494 123.594C57.5494 126.909 58.6476 129.746 60.844 132.102L78.3954 114.666C77.0776 113.507 75.7997 112.689 74.5617 112.209C73.3237 111.69 71.8461 111.43 70.1289 111.43C67.6929 111.43 65.5164 111.97 63.5995 113.048C61.7226 114.087 60.245 115.525 59.1668 117.362C58.0885 119.2 57.5494 121.277 57.5494 123.594ZM100.92 137.975C98.4841 137.975 96.1279 137.315 93.8516 135.997C91.6153 134.679 89.8981 132.941 88.7 130.784V137.315H86.7832V92.3759H88.7V117.183C89.7783 114.906 91.4555 113.088 93.7318 111.73C96.0081 110.372 98.4042 109.693 100.92 109.693C103.516 109.693 105.892 110.332 108.049 111.61C110.245 112.888 111.982 114.606 113.26 116.763C114.538 118.92 115.177 121.277 115.177 123.834C115.177 126.39 114.538 128.747 113.26 130.904C111.982 133.061 110.245 134.779 108.049 136.057C105.892 137.335 103.516 137.975 100.92 137.975ZM101.04 136.297C103.236 136.297 105.273 135.738 107.15 134.619C109.027 133.461 110.505 131.943 111.583 130.065C112.701 128.148 113.26 126.071 113.26 123.834C113.26 121.637 112.701 119.579 111.583 117.662C110.465 115.744 108.967 114.227 107.09 113.108C105.213 111.95 103.176 111.37 100.98 111.37C98.7836 111.37 96.727 111.95 94.8101 113.108C92.9332 114.266 91.4156 115.804 90.2575 117.722C89.1393 119.639 88.5802 121.696 88.5802 123.894C88.5802 126.091 89.1393 128.148 90.2575 130.065C91.4156 131.943 92.9531 133.461 94.87 134.619C96.7869 135.738 98.8435 136.297 101.04 136.297ZM144.706 138.154C139.714 138.154 135.84 136.097 133.085 131.983V128.747C134.163 131.144 135.72 133.021 137.757 134.379C139.834 135.738 142.309 136.417 145.185 136.417C147.182 136.417 149.019 135.977 150.696 135.098C152.413 134.22 153.771 132.981 154.769 131.383C155.768 129.786 156.267 127.948 156.267 125.871C156.267 123.993 155.947 122.376 155.308 121.017C154.669 119.659 153.611 118.361 152.133 117.123C150.656 115.844 148.519 114.346 145.724 112.629L143.807 111.43C142.05 110.352 140.632 109.393 139.554 108.554C138.476 107.715 137.537 106.737 136.739 105.618C135.7 104.06 135.181 102.263 135.181 100.225C135.181 97.509 136.06 95.3918 137.817 93.8739C139.574 92.3559 141.81 91.5969 144.526 91.5969C148.2 91.5969 151.115 92.9551 153.272 95.6714V98.7273C152.353 97.0496 151.095 95.7314 149.498 94.7727C147.9 93.8139 146.143 93.3346 144.226 93.3346C142.23 93.3346 140.552 93.9538 139.195 95.1921C137.837 96.4304 137.158 98.0882 137.158 100.165C137.158 102.203 137.777 103.96 139.015 105.438C140.293 106.876 142.429 108.454 145.424 110.172C149.098 112.329 151.954 114.286 153.99 116.044C155.428 117.362 156.466 118.82 157.105 120.418C157.784 122.016 158.124 123.794 158.124 125.751C158.124 128.228 157.545 130.405 156.387 132.282C155.228 134.16 153.631 135.618 151.594 136.656C149.558 137.655 147.261 138.154 144.706 138.154ZM177.11 137.975C174.554 137.975 172.178 137.335 169.982 136.057C167.785 134.779 166.048 133.061 164.77 130.904C163.492 128.707 162.854 126.35 162.854 123.834C162.854 121.317 163.492 118.98 164.77 116.823C166.048 114.626 167.785 112.888 169.982 111.61C172.178 110.332 174.554 109.693 177.11 109.693C179.706 109.693 182.162 110.392 184.478 111.79C186.795 113.148 188.412 114.926 189.33 117.123V110.352H191.247V137.315H189.33V130.604C188.252 132.841 186.575 134.639 184.299 135.997C182.062 137.315 179.666 137.975 177.11 137.975ZM177.23 136.297C179.427 136.297 181.463 135.738 183.34 134.619C185.217 133.461 186.695 131.943 187.773 130.065C188.891 128.148 189.45 126.071 189.45 123.834C189.45 121.637 188.891 119.579 187.773 117.662C186.655 115.744 185.157 114.227 183.28 113.108C181.403 111.95 179.367 111.37 177.17 111.37C174.974 111.37 172.917 111.95 171 113.108C169.123 114.266 167.606 115.804 166.448 117.722C165.329 119.639 164.77 121.696 164.77 123.894C164.77 126.091 165.329 128.148 166.448 130.065C167.606 131.943 169.143 133.461 171.06 134.619C172.977 135.738 175.034 136.297 177.23 136.297ZM209.051 137.855C207.174 137.855 205.457 137.435 203.899 136.596C202.342 135.718 201.104 134.499 200.185 132.941C199.267 131.383 198.807 129.646 198.807 127.728V92.3759H200.724V127.728C200.724 129.326 201.084 130.764 201.803 132.043C202.561 133.321 203.58 134.339 204.858 135.098C206.136 135.817 207.533 136.177 209.051 136.177V137.855ZM226.252 138.274C223.536 138.274 221.08 137.615 218.884 136.297C216.687 134.939 214.97 133.161 213.732 130.964C212.494 128.727 211.875 126.31 211.875 123.714C211.875 121.157 212.494 118.78 213.732 116.583C215.01 114.386 216.727 112.649 218.884 111.37C221.08 110.052 223.516 109.393 226.192 109.393C228.827 109.393 231.223 110.052 233.38 111.37C235.576 112.649 237.294 114.386 238.532 116.583C239.77 118.78 240.388 121.157 240.388 123.714C240.388 126.39 239.789 128.847 238.591 131.084C237.393 133.281 235.716 135.039 233.56 136.357C231.443 137.635 229.007 138.274 226.252 138.274ZM226.252 136.596C228.528 136.596 230.604 136.017 232.481 134.859C234.358 133.7 235.816 132.162 236.854 130.245C237.932 128.288 238.472 126.15 238.472 123.834C238.472 121.557 237.932 119.44 236.854 117.482C235.776 115.525 234.298 113.967 232.421 112.808C230.545 111.65 228.468 111.071 226.192 111.071C223.915 111.071 221.819 111.67 219.902 112.868C218.025 114.027 216.527 115.585 215.409 117.542C214.331 119.499 213.792 121.617 213.792 123.894C213.792 126.17 214.331 128.288 215.409 130.245C216.527 132.162 218.025 133.7 219.902 134.859C221.819 136.017 223.935 136.596 226.252 136.596ZM259.187 138.274C256.471 138.274 254.015 137.615 251.819 136.297C249.622 134.939 247.905 133.161 246.667 130.964C245.429 128.727 244.81 126.31 244.81 123.714C244.81 121.157 245.429 118.78 246.667 116.583C247.945 114.386 249.662 112.649 251.819 111.37C254.015 110.052 256.451 109.393 259.127 109.393C261.762 109.393 264.159 110.052 266.315 111.37C268.511 112.649 270.229 114.386 271.467 116.583C272.705 118.78 273.324 121.157 273.324 123.714C273.324 126.39 272.725 128.847 271.527 131.084C270.328 133.281 268.651 135.039 266.495 136.357C264.378 137.635 261.942 138.274 259.187 138.274ZM259.187 136.596C261.463 136.596 263.54 136.017 265.416 134.859C267.293 133.7 268.751 132.162 269.789 130.245C270.868 128.288 271.407 126.15 271.407 123.834C271.407 121.557 270.868 119.44 269.789 117.482C268.711 115.525 267.234 113.967 265.357 112.808C263.48 111.65 261.403 111.071 259.127 111.071C256.85 111.071 254.754 111.67 252.837 112.868C250.96 114.027 249.462 115.585 248.344 117.542C247.266 119.499 246.727 121.617 246.727 123.894C246.727 126.17 247.266 128.288 248.344 130.245C249.462 132.162 250.96 133.7 252.837 134.859C254.754 136.017 256.87 136.596 259.187 136.596ZM278.717 110.352H280.634V116.344C281.513 114.346 283.01 112.748 285.127 111.55C287.243 110.312 289.58 109.693 292.135 109.693C295.45 109.693 298.066 110.751 299.983 112.868C301.939 114.946 302.918 117.862 302.918 121.617V137.315H301.001V121.617C301.001 118.381 300.202 115.864 298.605 114.067C297.047 112.269 294.851 111.37 292.016 111.37C289.939 111.37 288.022 111.85 286.265 112.808C284.548 113.727 283.17 115.005 282.132 116.643C281.133 118.281 280.634 120.139 280.634 122.216V137.315H278.717V110.352Z" fill="white"/>
<path class="star" d="M68.638 152.295V183.503M78.6218 167.275H58.6543" stroke="#E9C758" stroke-width="2"/>
<path class="star" d="M43.6789 144.805V161.034M48.6708 152.595H38.687" stroke="#E9C758" stroke-width="2"/>
<path class="star" d="M212.778 74.8993V96.1208M219.642 85.0856H205.915" stroke="#E9C758" stroke-width="2"/>
</svg>
